<svg version="1.1" id="Layer_1" xmlns="http://www.w3.org/2000/svg" xmlns:xlink="http://www.w3.org/1999/xlink" x="0px" y="0px"
	 width="100%" viewBox="0 0 3000 2000" enable-background="new 0 0 3000 2000" xml:space="preserve">
<path fill="#47704C" opacity="1.000000" stroke="none" 
	d="
M2798.000000,2002.000000 
	C1865.333374,2002.000000 933.666687,2002.000000 2.000000,2002.000000 
	C2.000000,1335.333374 2.000000,668.666687 2.000000,2.000000 
	C1002.000000,2.000000 2002.000000,2.000000 3002.000000,2.000000 
	C3002.000000,668.666687 3002.000000,1335.333374 3002.000000,2002.000000 
	C2934.333252,2002.000000 2866.666748,2002.000000 2798.000000,2002.000000 
M2284.050781,1147.587158 
	C2308.637207,1147.540161 2333.223633,1147.493164 2358.886475,1147.306519 
	C2358.674805,1146.084839 2358.463135,1144.863037 2357.806885,1142.173828 
	C2355.989746,1132.775879 2352.511230,1123.348145 2352.679199,1113.985962 
	C2353.113281,1089.813721 2354.906738,1065.651978 2356.684326,1041.524902 
	C2357.392822,1031.906494 2360.731689,1022.919556 2365.473877,1014.306580 
	C2392.761963,964.742188 2423.914795,917.703491 2457.932861,872.559692 
	C2463.645020,864.979553 2471.093262,858.707703 2478.289551,851.567627 
	C2478.737549,851.019714 2478.705566,850.492859 2476.301270,849.813232 
	C2451.240234,849.732971 2426.170166,849.222900 2400.918457,850.119080 
	C2405.100586,871.780029 2404.135986,878.168884 2393.235352,895.741943 
	C2380.782227,915.817627 2368.056885,935.724976 2355.377197,955.659119 
	C2351.527588,961.710815 2347.437744,967.609253 2342.619141,974.836060 
	C2340.686035,970.252930 2339.436768,967.232605 2338.142334,964.231750 
	C2323.913330,931.247803 2309.768799,898.226929 2295.397949,865.304810 
	C2289.589844,851.999634 2279.213135,845.592529 2264.557373,846.316406 
	C2251.286377,846.971924 2238.008545,847.491760 2224.736328,848.122559 
	C2220.632324,848.317505 2216.536377,848.680298 2212.405518,848.968445 
	C2212.677734,850.688354 2212.543457,851.568542 2212.911621,851.915344 
	C2225.438965,863.719238 2234.163086,878.279602 2242.471680,893.074219 
	C2262.559570,928.844055 2279.064453,966.221436 2292.513916,1004.986084 
	C2296.600098,1016.762878 2299.281738,1028.569336 2298.351074,1041.100220 
	C2297.341797,1054.686279 2297.048340,1068.344116 2295.541748,1081.870361 
	C2293.190186,1102.983521 2291.178711,1124.255493 2281.110352,1144.503784 
	C2281.477295,1145.468140 2281.844238,1146.432495 2284.050781,1147.587158 
M976.028564,1147.586426 
	C987.025940,1147.614258 998.023499,1147.685181 1009.020752,1147.657959 
	C1020.193726,1147.630371 1031.366455,1147.505981 1042.520264,1147.424194 
	C1041.849609,1127.671875 1042.772217,1120.666138 1048.853516,1106.226807 
	C1053.631592,1094.882202 1059.353027,1083.922363 1063.843628,1072.473145 
	C1067.020874,1064.372437 1071.947754,1062.010620 1080.516602,1062.130127 
	C1110.766602,1062.552246 1141.135742,1063.482544 1170.803833,1055.496460 
	C1171.313232,1055.359253 1172.010498,1055.919800 1173.471191,1056.482666 
	C1176.271606,1066.138062 1178.928101,1076.425415 1182.249268,1086.493408 
	C1187.766724,1103.219604 1193.417114,1119.914673 1199.586426,1136.407959 
	C1203.250488,1146.203857 1211.086304,1150.621460 1221.591553,1150.343384 
	C1233.576294,1150.026245 1245.573242,1150.041870 1257.547485,1149.516113 
	C1262.559692,1149.295898 1267.526978,1148.053833 1271.841187,1147.381348 
	C1265.228760,1136.103027 1258.146362,1125.965576 1253.094482,1114.900879 
	C1247.171753,1101.928711 1242.134277,1088.399902 1238.240967,1074.678955 
	C1218.530762,1005.215637 1199.324341,935.609314 1179.913696,866.060791 
	C1178.421875,860.715576 1176.716187,855.430054 1174.990234,849.721069 
	C1153.113037,849.647583 1132.021973,849.606628 1109.269165,849.740112 
	C1115.934082,862.379456 1112.353149,872.636475 1107.761841,882.862549 
	C1105.037476,888.930725 1102.831055,895.233032 1100.064209,901.280273 
	C1083.307251,937.904358 1066.898071,974.696716 1049.525269,1011.027588 
	C1027.274902,1057.558594 1006.007690,1104.714233 973.050964,1146.082397 
	C973.429382,1146.519897 973.807800,1146.957520 976.028564,1147.586426 
M1370.623047,1147.400146 
	C1370.816528,1147.211426 1371.207642,1146.952759 1371.169678,1146.845947 
	C1370.999756,1146.365601 1370.708008,1145.928345 1370.091309,1144.009888 
	C1365.350098,1134.512451 1364.310059,1124.195801 1364.456299,1113.901001 
	C1364.768311,1091.961182 1365.537354,1070.022949 1366.464478,1048.098755 
	C1366.909302,1037.580688 1368.139282,1027.095947 1369.020020,1016.518433 
	C1378.089355,1014.371826 1382.992798,1019.635315 1387.197876,1025.185669 
	C1396.240479,1037.121338 1404.851196,1049.384888 1413.598022,1061.543579 
	C1433.418823,1089.096069 1453.426147,1116.518066 1472.917236,1144.301880 
	C1480.714966,1155.417358 1490.691162,1160.787354 1504.133545,1160.357300 
	C1515.444214,1159.995605 1526.769409,1160.060669 1538.077515,1159.646973 
	C1546.188721,1159.350342 1554.282471,1158.575317 1563.688599,1157.923340 
	C1556.982788,1152.051025 1551.067871,1147.759155 1546.265137,1142.459229 
	C1538.904419,1134.336670 1532.102173,1125.679077 1525.425537,1116.970459 
	C1496.873291,1079.728760 1468.446777,1042.390625 1440.018921,1005.053711 
	C1439.098633,1003.845093 1438.660522,1002.269287 1437.757446,1000.355835 
	C1442.874268,998.243103 1447.478394,996.398987 1452.037354,994.449402 
	C1468.957153,987.213806 1483.128296,976.384155 1493.521729,961.163940 
	C1507.338013,940.931641 1508.985229,918.255859 1504.641113,895.028870 
	C1501.027832,875.709351 1488.620850,862.761414 1470.474976,856.583252 
	C1459.299927,852.778503 1447.171021,850.226379 1435.409668,849.977051 
	C1397.119263,849.165161 1358.800781,849.654297 1320.493164,849.710876 
	C1318.063354,849.714417 1315.634399,850.299316 1313.669067,850.553650 
	C1315.324951,858.134521 1317.204834,864.844238 1318.168213,871.683105 
	C1319.137817,878.566406 1319.805298,885.601074 1319.543701,892.529358 
	C1318.616333,917.096252 1317.560791,941.667419 1315.949097,966.197266 
	C1313.619019,1001.659668 1311.248535,1037.132690 1307.963135,1072.514648 
	C1305.643921,1097.492920 1304.662354,1122.903198 1292.339355,1147.266602 
	C1318.865601,1147.952393 1344.337646,1147.795166 1370.623047,1147.400146 
M756.030457,1147.583984 
	C782.671570,1147.612305 809.313965,1147.804810 835.953369,1147.605347 
	C851.234009,1147.490967 866.583862,1147.524536 881.770752,1146.093262 
	C904.895447,1143.913574 926.804932,1137.227783 946.229919,1123.969849 
	C980.321472,1100.701904 992.245850,1064.931885 980.112732,1027.119873 
	C976.363647,1015.436035 969.039429,1005.981812 959.084473,998.671814 
	C947.045837,989.831848 933.434875,984.754517 918.929993,981.756592 
	C916.558655,981.266541 914.262207,980.414124 910.110474,979.194214 
	C914.980469,977.068237 918.111572,976.008240 920.938354,974.410034 
	C929.593201,969.516724 938.832214,965.310120 946.582458,959.228821 
	C969.239685,941.450256 977.135620,918.095886 970.030640,890.009521 
	C966.959534,877.869446 960.080444,868.309814 949.435791,861.634277 
	C935.143494,852.671204 919.148010,849.836060 902.677429,849.741272 
	C862.716614,849.511169 822.753540,849.653992 782.791382,849.690430 
	C779.931946,849.693054 777.072693,850.051270 774.855896,850.200806 
	C776.555603,859.629578 779.406372,868.365601 779.464233,877.120117 
	C779.624329,901.362366 779.116089,925.636169 777.948364,949.852966 
	C776.540955,979.038818 774.588318,1008.213318 772.114868,1037.328369 
	C769.923340,1063.125244 766.851746,1088.852417 763.851074,1114.573242 
	C762.573425,1125.524170 759.340820,1136.002686 753.064392,1146.088501 
	C753.439148,1146.522095 753.813904,1146.955811 756.030457,1147.583984 
M631.885254,1140.687622 
	C632.190491,1138.657837 633.392517,1136.156006 632.622070,1134.692383 
	C630.783875,1131.200684 628.015442,1128.198608 625.622070,1124.999146 
	C611.752808,1106.459839 600.375732,1086.612183 594.053650,1064.172852 
	C592.856079,1059.922241 590.971130,1055.493530 594.199158,1049.973633 
	C596.052307,1052.881714 597.407288,1054.980347 598.734924,1057.096069 
	C605.101135,1067.241089 611.069519,1077.664062 617.926941,1087.465088 
	C625.375854,1098.111816 633.665894,1108.175781 644.810181,1115.348999 
	C648.485718,1117.714844 652.245544,1120.115601 657.955139,1116.393677 
	C656.803528,1113.137085 655.905334,1109.395630 654.221130,1106.049683 
	C648.073303,1093.836670 641.884888,1081.661377 639.232422,1068.086914 
	C638.528809,1064.486450 636.813660,1060.606445 641.055725,1057.164917 
	C650.021301,1071.318848 658.452271,1085.212158 671.913635,1095.479614 
	C673.224731,1094.248169 674.471436,1093.547119 675.027100,1092.484863 
	C683.337769,1076.595703 693.055054,1061.238525 699.487671,1044.613403 
	C713.038147,1009.591553 716.129578,972.928711 711.692993,935.679688 
	C709.139771,914.242920 703.048218,894.031921 690.263367,876.234558 
	C674.457886,854.232483 654.070251,851.414490 633.062866,854.471863 
	C625.689880,855.544861 619.447815,859.745789 614.683228,865.686584 
	C607.902100,874.141846 608.242554,884.944214 615.486023,892.931946 
	C616.943359,894.538940 618.472778,896.080627 620.255737,897.953674 
	C618.342896,899.621704 617.256104,900.915100 615.882202,901.715637 
	C595.865906,913.377441 570.721558,903.327332 564.984436,880.861145 
	C562.866516,872.567444 562.675537,863.775146 561.693359,855.200134 
	C560.900146,848.275269 560.682007,841.253601 559.424622,834.419189 
	C556.945068,820.941284 548.778137,812.532959 535.299500,809.592529 
	C531.415222,808.745178 527.455444,807.907043 523.504517,807.760986 
	C506.653534,807.138184 491.190979,813.675598 475.245361,817.641357 
	C472.477875,818.329590 469.419952,820.114380 467.723999,822.331726 
	C464.973389,825.927917 462.709076,830.125671 461.288391,834.416748 
	C460.527557,836.714783 461.957581,839.738159 462.386627,842.358948 
	C464.313354,842.136169 465.008820,842.183533 465.609894,841.967896 
	C487.986420,833.939026 502.787811,844.285278 502.301086,867.641663 
	C502.266418,869.306030 502.316559,870.991882 502.070251,872.629089 
	C497.704895,901.646179 478.388245,909.407654 454.884399,905.220398 
	C450.199707,904.385803 445.053436,902.852295 444.147339,899.368347 
	C447.431519,892.242371 451.107758,887.202148 452.011017,881.706177 
	C454.008789,869.550781 445.615417,858.388000 431.461487,855.193970 
	C412.331024,850.876831 394.281860,853.584656 379.507019,867.982544 
	C365.648712,881.487183 358.857910,898.689514 354.106964,916.974426 
	C349.442810,934.925232 349.708771,953.213989 349.584045,971.547791 
	C349.288940,1014.924805 363.174927,1053.876465 385.794006,1090.195312 
	C386.967926,1092.080322 388.787048,1093.563354 391.032867,1096.033081 
	C403.391479,1084.756836 412.369263,1071.430176 422.537445,1058.508057 
	C423.382538,1062.542114 423.928436,1066.528564 422.699280,1069.859985 
	C418.334412,1081.690552 413.385162,1093.306396 408.608093,1104.983398 
	C407.479828,1107.741211 405.564606,1110.338257 405.173584,1113.169800 
	C404.972473,1114.626465 407.233734,1117.721191 408.551453,1117.820068 
	C411.326355,1118.028198 414.636475,1117.413208 416.958252,1115.931396 
	C420.836243,1113.456665 424.247559,1110.181152 427.617340,1106.991211 
	C443.052734,1092.379761 454.143829,1074.626587 464.219849,1056.138306 
	C465.320953,1054.117920 466.968842,1052.395386 468.363129,1050.534790 
	C469.161652,1050.890381 469.960175,1051.246094 470.758667,1051.601807 
	C469.591553,1056.990112 468.752045,1062.474854 467.200592,1067.750122 
	C460.519684,1090.466431 448.325378,1110.224121 434.000275,1128.815186 
	C431.841309,1131.617188 429.981750,1134.650024 428.008850,1137.539307 
	C429.440948,1139.327881 430.125214,1140.498413 431.092926,1141.344971 
	C458.233063,1165.089355 489.277161,1182.176758 522.750000,1195.159546 
	C527.929932,1197.168701 532.763977,1197.561279 538.156555,1195.600220 
	C572.308350,1183.182007 603.327942,1165.454102 631.885254,1140.687622 
M1999.631958,1042.320190 
	C1992.797363,1055.657837 1985.276367,1068.699463 1979.354248,1082.430664 
	C1974.944824,1092.654663 1967.118774,1097.785522 1957.759766,1101.765381 
	C1954.707031,1103.063477 1951.551147,1104.271851 1948.323730,1104.981567 
	C1927.722656,1109.511353 1906.805786,1109.793579 1885.936890,1108.280273 
	C1873.575806,1107.383789 1871.497070,1104.660767 1871.769409,1092.587280 
	C1872.144043,1075.968262 1872.822510,1059.338745 1874.003906,1042.758789 
	C1876.460449,1008.285767 1879.156372,973.827209 1882.106689,939.392944 
	C1883.666382,921.189880 1885.421509,902.968445 1888.128174,884.911255 
	C1889.871216,873.282715 1893.503052,861.937256 1896.358032,850.177734 
	C1870.988159,850.177734 1845.434937,850.177734 1819.189453,850.177734 
	C1824.929199,867.045227 1825.959961,883.893433 1825.574341,900.827698 
	C1825.241333,915.450134 1824.522095,930.074768 1823.538086,944.669128 
	C1821.258545,978.482727 1819.107788,1012.313049 1816.147705,1046.070190 
	C1814.000610,1070.554321 1811.069092,1094.993042 1807.603027,1119.326172 
	C1806.277466,1128.632324 1802.492188,1137.588013 1799.820435,1146.729126 
	C1813.924805,1148.780396 2000.424927,1148.033325 2007.902710,1145.767700 
	C2004.201782,1114.203125 2022.712158,1089.656372 2033.770264,1062.526123 
	C2068.971436,1061.761597 2103.367676,1064.406128 2137.629395,1055.101929 
	C2138.857910,1058.559570 2140.086914,1061.569336 2141.000732,1064.672241 
	C2144.102783,1075.207886 2146.784668,1085.877930 2150.204346,1096.307373 
	C2154.552246,1109.567993 2159.158691,1122.762939 2164.230225,1135.761108 
	C2168.153076,1145.814819 2176.080322,1150.567871 2186.960693,1150.346313 
	C2192.957031,1150.224121 2198.970703,1150.567261 2204.954102,1150.262329 
	C2215.723145,1149.713379 2226.475098,1148.834473 2238.634277,1147.997192 
	C2234.146240,1141.726074 2230.506592,1137.096313 2227.354004,1132.155518 
	C2214.300293,1111.695923 2206.880371,1088.771606 2200.310791,1065.778320 
	C2182.942383,1004.991272 2166.515869,943.935242 2149.689941,882.993042 
	C2146.694824,872.145081 2143.581787,861.329834 2140.639160,850.909912 
	C2128.865479,848.861633 2083.614746,849.269653 2075.387207,851.618225 
	C2081.627930,864.484497 2076.438232,876.296448 2071.144043,887.813904 
	C2047.648438,938.925232 2023.899536,989.920044 1999.631958,1042.320190 
M2588.823486,1097.595093 
	C2581.793213,1105.751587 2572.831787,1110.715820 2562.328613,1112.378784 
	C2554.818115,1113.567993 2547.136230,1114.285645 2539.540283,1114.214233 
	C2514.444336,1113.978760 2493.827393,1103.633423 2477.428223,1084.936157 
	C2471.840576,1078.565674 2467.110352,1071.443237 2460.592773,1062.817383 
	C2458.840576,1088.834961 2457.227539,1112.788452 2455.605469,1136.872192 
	C2491.788818,1150.300659 2527.647217,1157.515503 2565.188965,1151.599365 
	C2588.920410,1147.859497 2610.598633,1139.428589 2629.294678,1123.597900 
	C2657.414795,1099.787476 2665.465332,1057.618530 2647.605225,1025.748901 
	C2641.012451,1013.984802 2632.291260,1003.778687 2621.466309,995.860840 
	C2606.697754,985.058350 2591.383301,974.992554 2576.153564,964.834351 
	C2564.502930,957.063293 2552.716309,949.523804 2543.410889,938.818359 
	C2536.520264,930.891174 2533.048828,922.301331 2535.248047,911.346863 
	C2538.246338,896.411011 2547.695557,888.322205 2561.374756,884.157227 
	C2589.543213,875.580688 2625.134033,887.509583 2642.804199,911.251465 
	C2644.674072,913.763550 2646.624023,916.216187 2650.086914,920.706726 
	C2652.810303,895.801758 2655.250488,873.487549 2657.716553,850.935608 
	C2654.620117,849.933594 2652.491211,848.817932 2650.272949,848.594727 
	C2633.072510,846.863403 2615.884521,844.709106 2598.634766,843.843323 
	C2577.309814,842.773010 2555.990479,843.426331 2535.353760,850.097107 
	C2516.175781,856.296204 2499.135498,865.828308 2488.179932,883.368591 
	C2469.981445,912.505493 2469.020508,958.682739 2503.708740,987.579895 
	C2519.244141,1000.521667 2536.694336,1011.153809 2553.160400,1022.993896 
	C2563.941650,1030.746216 2575.102051,1038.119385 2585.040527,1046.858887 
	C2598.416016,1058.621094 2602.837646,1079.124023 2588.823486,1097.595093 
M1585.917725,894.890930 
	C1581.411133,901.482056 1576.541138,907.856750 1572.464111,914.703674 
	C1558.777344,937.689331 1551.562256,962.898865 1548.904175,989.300110 
	C1545.741333,1020.715271 1546.460327,1051.812378 1559.690552,1081.452148 
	C1573.504639,1112.400024 1595.071045,1135.303467 1627.422485,1146.733154 
	C1646.829102,1153.589478 1666.871948,1154.949463 1687.431030,1152.467896 
	C1729.156738,1147.431030 1758.428101,1126.252075 1774.660400,1087.358887 
	C1776.264038,1083.516479 1777.573853,1079.551392 1779.851562,1073.396240 
	C1775.924683,1075.705688 1774.303589,1076.687500 1772.656250,1077.623291 
	C1761.666138,1083.865967 1750.917725,1090.594727 1739.622559,1096.226440 
	C1719.422729,1106.297852 1697.888306,1109.810913 1675.670288,1105.415039 
	C1643.305542,1099.011841 1623.898804,1078.037964 1614.579956,1047.425537 
	C1606.850342,1022.034119 1608.068604,996.061646 1612.889526,970.295837 
	C1616.719238,949.826721 1623.859253,930.561218 1636.225342,913.492920 
	C1655.070068,887.483093 1685.224487,876.346069 1716.342773,883.730103 
	C1736.264526,888.457153 1750.565674,900.772461 1762.334595,916.735718 
	C1764.158325,919.209595 1765.986328,921.680298 1769.196411,926.026428 
	C1771.817261,899.158752 1774.184692,874.888611 1776.639648,849.721497 
	C1766.906250,848.871094 1758.676880,848.083435 1750.435913,847.446533 
	C1733.547241,846.141235 1716.655396,843.904663 1699.759521,843.854858 
	C1654.892822,843.722534 1616.482544,859.101868 1585.917725,894.890930 
z"/>
<path fill="#00AFE8" opacity="1.000000" stroke="none" 
	d="
M631.371460,1141.187256 
	C603.327942,1165.454102 572.308350,1183.182007 538.156555,1195.600220 
	C532.763977,1197.561279 527.929932,1197.168701 522.750000,1195.159546 
	C489.277161,1182.176758 458.233063,1165.089355 431.092926,1141.344971 
	C430.125214,1140.498413 429.440948,1139.327881 428.008850,1137.539307 
	C429.981750,1134.650024 431.841309,1131.617188 434.000275,1128.815186 
	C448.325378,1110.224121 460.519684,1090.466431 467.200592,1067.750122 
	C468.752045,1062.474854 469.591553,1056.990112 470.758667,1051.601807 
	C469.960175,1051.246094 469.161652,1050.890381 468.363129,1050.534790 
	C466.968842,1052.395386 465.320953,1054.117920 464.219849,1056.138306 
	C454.143829,1074.626587 443.052734,1092.379761 427.617340,1106.991211 
	C424.247559,1110.181152 420.836243,1113.456665 416.958252,1115.931396 
	C414.636475,1117.413208 411.326355,1118.028198 408.551453,1117.820068 
	C407.233734,1117.721191 404.972473,1114.626465 405.173584,1113.169800 
	C405.564606,1110.338257 407.479828,1107.741211 408.608093,1104.983398 
	C413.385162,1093.306396 418.334412,1081.690552 422.699280,1069.859985 
	C423.928436,1066.528564 423.382538,1062.542114 422.537445,1058.508057 
	C412.369263,1071.430176 403.391479,1084.756836 391.032867,1096.033081 
	C388.787048,1093.563354 386.967926,1092.080322 385.794006,1090.195312 
	C363.174927,1053.876465 349.288940,1014.924805 349.584045,971.547791 
	C349.708771,953.213989 349.442810,934.925232 354.106964,916.974426 
	C358.857910,898.689514 365.648712,881.487183 379.507019,867.982544 
	C394.281860,853.584656 412.331024,850.876831 431.461487,855.193970 
	C445.615417,858.388000 454.008789,869.550781 452.011017,881.706177 
	C451.107758,887.202148 447.431519,892.242371 444.147339,899.368347 
	C445.053436,902.852295 450.199707,904.385803 454.884399,905.220398 
	C478.388245,909.407654 497.704895,901.646179 502.070251,872.629089 
	C502.316559,870.991882 502.266418,869.306030 502.301086,867.641663 
	C502.787811,844.285278 487.986420,833.939026 465.609894,841.967896 
	C465.008820,842.183533 464.313354,842.136169 462.386627,842.358948 
	C461.957581,839.738159 460.527557,836.714783 461.288391,834.416748 
	C462.709076,830.125671 464.973389,825.927917 467.723999,822.331726 
	C469.419952,820.114380 472.477875,818.329590 475.245361,817.641357 
	C491.190979,813.675598 506.653534,807.138184 523.504517,807.760986 
	C527.455444,807.907043 531.415222,808.745178 535.299500,809.592529 
	C548.778137,812.532959 556.945068,820.941284 559.424622,834.419189 
	C560.682007,841.253601 560.900146,848.275269 561.693359,855.200134 
	C562.675537,863.775146 562.866516,872.567444 564.984436,880.861145 
	C570.721558,903.327332 595.865906,913.377441 615.882202,901.715637 
	C617.256104,900.915100 618.342896,899.621704 620.255737,897.953674 
	C618.472778,896.080627 616.943359,894.538940 615.486023,892.931946 
	C608.242554,884.944214 607.902100,874.141846 614.683228,865.686584 
	C619.447815,859.745789 625.689880,855.544861 633.062866,854.471863 
	C654.070251,851.414490 674.457886,854.232483 690.263367,876.234558 
	C703.048218,894.031921 709.139771,914.242920 711.692993,935.679688 
	C716.129578,972.928711 713.038147,1009.591553 699.487671,1044.613403 
	C693.055054,1061.238525 683.337769,1076.595703 675.027100,1092.484863 
	C674.471436,1093.547119 673.224731,1094.248169 671.913635,1095.479614 
	C658.452271,1085.212158 650.021301,1071.318848 641.055725,1057.164917 
	C636.813660,1060.606445 638.528809,1064.486450 639.232422,1068.086914 
	C641.884888,1081.661377 648.073303,1093.836670 654.221130,1106.049683 
	C655.905334,1109.395630 656.803528,1113.137085 657.955139,1116.393677 
	C652.245544,1120.115601 648.485718,1117.714844 644.810181,1115.348999 
	C633.665894,1108.175781 625.375854,1098.111816 617.926941,1087.465088 
	C611.069519,1077.664062 605.101135,1067.241089 598.734924,1057.096069 
	C597.407288,1054.980347 596.052307,1052.881714 594.199158,1049.973633 
	C590.971130,1055.493530 592.856079,1059.922241 594.053650,1064.172852 
	C600.375732,1086.612183 611.752808,1106.459839 625.622070,1124.999146 
	C628.015442,1128.198608 630.783875,1131.200684 632.622070,1134.692383 
	C633.392517,1136.156006 632.190491,1138.657837 631.371460,1141.187256 
z"/>
<path fill="#01ADEE" opacity="1.000000" stroke="none" 
	d="
M1999.937134,1041.638672 
	C2023.899536,989.920044 2047.648438,938.925232 2071.144043,887.813904 
	C2076.438232,876.296448 2081.627930,864.484497 2075.387207,851.618225 
	C2083.614746,849.269653 2128.865479,848.861633 2140.639160,850.909912 
	C2143.581787,861.329834 2146.694824,872.145081 2149.689941,882.993042 
	C2166.515869,943.935242 2182.942383,1004.991272 2200.310791,1065.778320 
	C2206.880371,1088.771606 2214.300293,1111.695923 2227.354004,1132.155518 
	C2230.506592,1137.096313 2234.146240,1141.726074 2238.634277,1147.997192 
	C2226.475098,1148.834473 2215.723145,1149.713379 2204.954102,1150.262329 
	C2198.970703,1150.567261 2192.957031,1150.224121 2186.960693,1150.346313 
	C2176.080322,1150.567871 2168.153076,1145.814819 2164.230225,1135.761108 
	C2159.158691,1122.762939 2154.552246,1109.567993 2150.204346,1096.307373 
	C2146.784668,1085.877930 2144.102783,1075.207886 2141.000732,1064.672241 
	C2140.086914,1061.569336 2138.857910,1058.559570 2137.629395,1055.101929 
	C2103.367676,1064.406128 2068.971436,1061.761597 2033.770264,1062.526123 
	C2022.712158,1089.656372 2004.201782,1114.203125 2007.902710,1145.767700 
	C2000.424927,1148.033325 1813.924805,1148.780396 1799.820435,1146.729126 
	C1802.492188,1137.588013 1806.277466,1128.632324 1807.603027,1119.326172 
	C1811.069092,1094.993042 1814.000610,1070.554321 1816.147705,1046.070190 
	C1819.107788,1012.313049 1821.258545,978.482727 1823.538086,944.669128 
	C1824.522095,930.074768 1825.241333,915.450134 1825.574341,900.827698 
	C1825.959961,883.893433 1824.929199,867.045227 1819.189453,850.177734 
	C1845.434937,850.177734 1870.988159,850.177734 1896.358032,850.177734 
	C1893.503052,861.937256 1889.871216,873.282715 1888.128174,884.911255 
	C1885.421509,902.968445 1883.666382,921.189880 1882.106689,939.392944 
	C1879.156372,973.827209 1876.460449,1008.285767 1874.003906,1042.758789 
	C1872.822510,1059.338745 1872.144043,1075.968262 1871.769409,1092.587280 
	C1871.497070,1104.660767 1873.575806,1107.383789 1885.936890,1108.280273 
	C1906.805786,1109.793579 1927.722656,1109.511353 1948.323730,1104.981567 
	C1951.551147,1104.271851 1954.707031,1103.063477 1957.759766,1101.765381 
	C1967.118774,1097.785522 1974.944824,1092.654663 1979.354248,1082.430664 
	C1985.276367,1068.699463 1992.797363,1055.657837 1999.937134,1041.638672 
M2119.590820,989.441895 
	C2113.188721,967.669189 2106.786377,945.896545 2100.384277,924.123840 
	C2099.692871,924.175903 2099.001221,924.228027 2098.309814,924.280090 
	C2083.494385,956.431763 2068.678711,988.583435 2053.124756,1022.338074 
	C2079.306885,1022.151001 2103.389160,1022.856323 2128.750977,1021.787903 
	C2125.554688,1010.696716 2122.721191,1000.863647 2119.590820,989.441895 
z"/>
<path fill="#01ADEE" opacity="1.000000" stroke="none" 
	d="
M753.686646,1145.603516 
	C759.340820,1136.002686 762.573425,1125.524170 763.851074,1114.573242 
	C766.851746,1088.852417 769.923340,1063.125244 772.114868,1037.328369 
	C774.588318,1008.213318 776.540955,979.038818 777.948364,949.852966 
	C779.116089,925.636169 779.624329,901.362366 779.464233,877.120117 
	C779.406372,868.365601 776.555603,859.629578 774.855896,850.200806 
	C777.072693,850.051270 779.931946,849.693054 782.791382,849.690430 
	C822.753540,849.653992 862.716614,849.511169 902.677429,849.741272 
	C919.148010,849.836060 935.143494,852.671204 949.435791,861.634277 
	C960.080444,868.309814 966.959534,877.869446 970.030640,890.009521 
	C977.135620,918.095886 969.239685,941.450256 946.582458,959.228821 
	C938.832214,965.310120 929.593201,969.516724 920.938354,974.410034 
	C918.111572,976.008240 914.980469,977.068237 910.110474,979.194214 
	C914.262207,980.414124 916.558655,981.266541 918.929993,981.756592 
	C933.434875,984.754517 947.045837,989.831848 959.084473,998.671814 
	C969.039429,1005.981812 976.363647,1015.436035 980.112732,1027.119873 
	C992.245850,1064.931885 980.321472,1100.701904 946.229919,1123.969849 
	C926.804932,1137.227783 904.895447,1143.913574 881.770752,1146.093262 
	C866.583862,1147.524536 851.234009,1147.490967 835.953369,1147.605347 
	C809.313965,1147.804810 782.671570,1147.612305 755.029907,1147.027344 
	C754.029419,1146.470703 753.686646,1145.603516 753.686646,1145.603516 
M826.330200,1069.432983 
	C826.108826,1078.418945 825.727417,1087.404785 825.715820,1096.391113 
	C825.706177,1103.827515 827.150818,1105.570679 834.238770,1107.694336 
	C844.640320,1110.810913 855.318054,1111.001587 865.915771,1109.521973 
	C882.364502,1107.225220 897.579224,1102.118042 909.306641,1089.272583 
	C928.000366,1068.796631 925.461853,1033.310791 903.419922,1017.379456 
	C897.879456,1013.374817 891.171509,1010.563049 884.593567,1008.498169 
	C867.273926,1003.061401 849.438171,1003.169800 831.087769,1004.266113 
	C829.463257,1025.905884 827.900879,1046.717651 826.330200,1069.432983 
M835.679077,934.683105 
	C834.981873,944.802246 834.284607,954.921387 833.558716,965.456787 
	C849.704956,967.520264 863.960571,965.749146 878.044983,961.247131 
	C887.794434,958.130676 896.180725,953.051575 903.019531,945.465881 
	C920.290649,926.308411 913.773926,899.314697 889.722107,890.413025 
	C874.018005,884.600830 857.882690,885.840393 840.755798,886.980713 
	C839.045593,902.624573 837.394409,917.729248 835.679077,934.683105 
z"/>
<path fill="#01ADEE" opacity="1.000000" stroke="none" 
	d="
M1369.813599,1147.393921 
	C1344.337646,1147.795166 1318.865601,1147.952393 1292.339355,1147.266602 
	C1304.662354,1122.903198 1305.643921,1097.492920 1307.963135,1072.514648 
	C1311.248535,1037.132690 1313.619019,1001.659668 1315.949097,966.197266 
	C1317.560791,941.667419 1318.616333,917.096252 1319.543701,892.529358 
	C1319.805298,885.601074 1319.137817,878.566406 1318.168213,871.683105 
	C1317.204834,864.844238 1315.324951,858.134521 1313.669067,850.553650 
	C1315.634399,850.299316 1318.063354,849.714417 1320.493164,849.710876 
	C1358.800781,849.654297 1397.119263,849.165161 1435.409668,849.977051 
	C1447.171021,850.226379 1459.299927,852.778503 1470.474976,856.583252 
	C1488.620850,862.761414 1501.027832,875.709351 1504.641113,895.028870 
	C1508.985229,918.255859 1507.338013,940.931641 1493.521729,961.163940 
	C1483.128296,976.384155 1468.957153,987.213806 1452.037354,994.449402 
	C1447.478394,996.398987 1442.874268,998.243103 1437.757446,1000.355835 
	C1438.660522,1002.269287 1439.098633,1003.845093 1440.018921,1005.053711 
	C1468.446777,1042.390625 1496.873291,1079.728760 1525.425537,1116.970459 
	C1532.102173,1125.679077 1538.904419,1134.336670 1546.265137,1142.459229 
	C1551.067871,1147.759155 1556.982788,1152.051025 1563.688599,1157.923340 
	C1554.282471,1158.575317 1546.188721,1159.350342 1538.077515,1159.646973 
	C1526.769409,1160.060669 1515.444214,1159.995605 1504.133545,1160.357300 
	C1490.691162,1160.787354 1480.714966,1155.417358 1472.917236,1144.301880 
	C1453.426147,1116.518066 1433.418823,1089.096069 1413.598022,1061.543579 
	C1404.851196,1049.384888 1396.240479,1037.121338 1387.197876,1025.185669 
	C1382.992798,1019.635315 1378.089355,1014.371826 1369.020020,1016.518433 
	C1368.139282,1027.095947 1366.909302,1037.580688 1366.464478,1048.098755 
	C1365.537354,1070.022949 1364.768311,1091.961182 1364.456299,1113.901001 
	C1364.310059,1124.195801 1365.350098,1134.512451 1370.069580,1145.207764 
	C1369.969727,1146.735107 1369.891602,1147.064575 1369.813599,1147.393921 
M1404.415894,886.327515 
	C1400.086060,886.327026 1395.756104,886.306580 1391.426392,886.330017 
	C1380.000854,886.391724 1379.508911,886.631409 1378.389893,897.626099 
	C1376.674683,914.477966 1375.182861,931.354065 1373.760498,948.233643 
	C1372.965332,957.668335 1372.501221,967.130920 1371.906250,976.298645 
	C1385.944336,979.671631 1398.797363,978.509705 1412.313599,973.122986 
	C1435.247192,963.983093 1448.252075,943.228638 1446.204590,918.803162 
	C1445.182617,906.612366 1439.690674,896.901611 1428.225708,892.105591 
	C1421.301758,889.209229 1413.590454,888.195190 1404.415894,886.327515 
z"/>
<path fill="#01ADED" opacity="1.000000" stroke="none" 
	d="
M973.678284,1145.593262 
	C1006.007690,1104.714233 1027.274902,1057.558594 1049.525269,1011.027588 
	C1066.898071,974.696716 1083.307251,937.904358 1100.064209,901.280273 
	C1102.831055,895.233032 1105.037476,888.930725 1107.761841,882.862549 
	C1112.353149,872.636475 1115.934082,862.379456 1109.269165,849.740112 
	C1132.021973,849.606628 1153.113037,849.647583 1174.990234,849.721069 
	C1176.716187,855.430054 1178.421875,860.715576 1179.913696,866.060791 
	C1199.324341,935.609314 1218.530762,1005.215637 1238.240967,1074.678955 
	C1242.134277,1088.399902 1247.171753,1101.928711 1253.094482,1114.900879 
	C1258.146362,1125.965576 1265.228760,1136.103027 1271.841187,1147.381348 
	C1267.526978,1148.053833 1262.559692,1149.295898 1257.547485,1149.516113 
	C1245.573242,1150.041870 1233.576294,1150.026245 1221.591553,1150.343384 
	C1211.086304,1150.621460 1203.250488,1146.203857 1199.586426,1136.407959 
	C1193.417114,1119.914673 1187.766724,1103.219604 1182.249268,1086.493408 
	C1178.928101,1076.425415 1176.271606,1066.138062 1173.471191,1056.482666 
	C1172.010498,1055.919800 1171.313232,1055.359253 1170.803833,1055.496460 
	C1141.135742,1063.482544 1110.766602,1062.552246 1080.516602,1062.130127 
	C1071.947754,1062.010620 1067.020874,1064.372437 1063.843628,1072.473145 
	C1059.353027,1083.922363 1053.631592,1094.882202 1048.853516,1106.226807 
	C1042.772217,1120.666138 1041.849609,1127.671875 1042.520264,1147.424194 
	C1031.366455,1147.505981 1020.193726,1147.630371 1009.020752,1147.657959 
	C998.023499,1147.685181 987.025940,1147.614258 975.025696,1147.027588 
	C974.022827,1146.468628 973.678284,1145.593262 973.678284,1145.593262 
M1107.164062,980.150635 
	C1100.962646,993.629639 1094.761353,1007.108704 1088.037720,1021.722656 
	C1113.824707,1021.722656 1137.912109,1021.722656 1163.660156,1021.722656 
	C1154.129883,988.712952 1144.831055,956.504578 1135.532227,924.296143 
	C1134.795410,924.241333 1134.058594,924.186462 1133.321655,924.131653 
	C1124.827271,942.355347 1116.332886,960.579041 1107.164062,980.150635 
z"/>
<path fill="#01ADED" opacity="1.000000" stroke="none" 
	d="
M2589.280273,1097.008057 
	C2602.837646,1079.124023 2598.416016,1058.621094 2585.040527,1046.858887 
	C2575.102051,1038.119385 2563.941650,1030.746216 2553.160400,1022.993896 
	C2536.694336,1011.153809 2519.244141,1000.521667 2503.708740,987.579895 
	C2469.020508,958.682739 2469.981445,912.505493 2488.179932,883.368591 
	C2499.135498,865.828308 2516.175781,856.296204 2535.353760,850.097107 
	C2555.990479,843.426331 2577.309814,842.773010 2598.634766,843.843323 
	C2615.884521,844.709106 2633.072510,846.863403 2650.272949,848.594727 
	C2652.491211,848.817932 2654.620117,849.933594 2657.716553,850.935608 
	C2655.250488,873.487549 2652.810303,895.801758 2650.086914,920.706726 
	C2646.624023,916.216187 2644.674072,913.763550 2642.804199,911.251465 
	C2625.134033,887.509583 2589.543213,875.580688 2561.374756,884.157227 
	C2547.695557,888.322205 2538.246338,896.411011 2535.248047,911.346863 
	C2533.048828,922.301331 2536.520264,930.891174 2543.410889,938.818359 
	C2552.716309,949.523804 2564.502930,957.063293 2576.153564,964.834351 
	C2591.383301,974.992554 2606.697754,985.058350 2621.466309,995.860840 
	C2632.291260,1003.778687 2641.012451,1013.984802 2647.605225,1025.748901 
	C2665.465332,1057.618530 2657.414795,1099.787476 2629.294678,1123.597900 
	C2610.598633,1139.428589 2588.920410,1147.859497 2565.188965,1151.599365 
	C2527.647217,1157.515503 2491.788818,1150.300659 2455.605469,1136.872192 
	C2457.227539,1112.788452 2458.840576,1088.834961 2460.592773,1062.817383 
	C2467.110352,1071.443237 2471.840576,1078.565674 2477.428223,1084.936157 
	C2493.827393,1103.633423 2514.444336,1113.978760 2539.540283,1114.214233 
	C2547.136230,1114.285645 2554.818115,1113.567993 2562.328613,1112.378784 
	C2572.831787,1110.715820 2581.793213,1105.751587 2589.280273,1097.008057 
z"/>
<path fill="#01ADED" opacity="1.000000" stroke="none" 
	d="
M1586.364868,894.339966 
	C1616.482544,859.101868 1654.892822,843.722534 1699.759521,843.854858 
	C1716.655396,843.904663 1733.547241,846.141235 1750.435913,847.446533 
	C1758.676880,848.083435 1766.906250,848.871094 1776.639648,849.721497 
	C1774.184692,874.888611 1771.817261,899.158752 1769.196411,926.026428 
	C1765.986328,921.680298 1764.158325,919.209595 1762.334595,916.735718 
	C1750.565674,900.772461 1736.264526,888.457153 1716.342773,883.730103 
	C1685.224487,876.346069 1655.070068,887.483093 1636.225342,913.492920 
	C1623.859253,930.561218 1616.719238,949.826721 1612.889526,970.295837 
	C1608.068604,996.061646 1606.850342,1022.034119 1614.579956,1047.425537 
	C1623.898804,1078.037964 1643.305542,1099.011841 1675.670288,1105.415039 
	C1697.888306,1109.810913 1719.422729,1106.297852 1739.622559,1096.226440 
	C1750.917725,1090.594727 1761.666138,1083.865967 1772.656250,1077.623291 
	C1774.303589,1076.687500 1775.924683,1075.705688 1779.851562,1073.396240 
	C1777.573853,1079.551392 1776.264038,1083.516479 1774.660400,1087.358887 
	C1758.428101,1126.252075 1729.156738,1147.431030 1687.431030,1152.467896 
	C1666.871948,1154.949463 1646.829102,1153.589478 1627.422485,1146.733154 
	C1595.071045,1135.303467 1573.504639,1112.400024 1559.690552,1081.452148 
	C1546.460327,1051.812378 1545.741333,1020.715271 1548.904175,989.300110 
	C1551.562256,962.898865 1558.777344,937.689331 1572.464111,914.703674 
	C1576.541138,907.856750 1581.411133,901.482056 1586.364868,894.339966 
z"/>
<path fill="#01ADED" opacity="1.000000" stroke="none" 
	d="
M2357.810059,1147.446167 
	C2333.223633,1147.493164 2308.637207,1147.540161 2283.122314,1146.904663 
	C2282.104492,1145.444214 2282.015381,1144.666382 2281.926270,1143.888428 
	C2291.178711,1124.255493 2293.190186,1102.983521 2295.541748,1081.870361 
	C2297.048340,1068.344116 2297.341797,1054.686279 2298.351074,1041.100220 
	C2299.281738,1028.569336 2296.600098,1016.762878 2292.513916,1004.986084 
	C2279.064453,966.221436 2262.559570,928.844055 2242.471680,893.074219 
	C2234.163086,878.279602 2225.438965,863.719238 2212.911621,851.915344 
	C2212.543457,851.568542 2212.677734,850.688354 2212.405518,848.968445 
	C2216.536377,848.680298 2220.632324,848.317505 2224.736328,848.122559 
	C2238.008545,847.491760 2251.286377,846.971924 2264.557373,846.316406 
	C2279.213135,845.592529 2289.589844,851.999634 2295.397949,865.304810 
	C2309.768799,898.226929 2323.913330,931.247803 2338.142334,964.231750 
	C2339.436768,967.232605 2340.686035,970.252930 2342.619141,974.836060 
	C2347.437744,967.609253 2351.527588,961.710815 2355.377197,955.659119 
	C2368.056885,935.724976 2380.782227,915.817627 2393.235352,895.741943 
	C2404.135986,878.168884 2405.100586,871.780029 2400.918457,850.119080 
	C2426.170166,849.222900 2451.240234,849.732971 2477.129883,850.359863 
	C2477.958496,850.906555 2477.739014,851.831177 2477.739014,851.831177 
	C2471.093262,858.707703 2463.645020,864.979553 2457.932861,872.559692 
	C2423.914795,917.703491 2392.761963,964.742188 2365.473877,1014.306580 
	C2360.731689,1022.919556 2357.392822,1031.906494 2356.684326,1041.524902 
	C2354.906738,1065.651978 2353.113281,1089.813721 2352.679199,1113.985962 
	C2352.511230,1123.348145 2355.989746,1132.775879 2357.928223,1143.538452 
	C2357.969727,1145.750732 2357.889893,1146.598511 2357.810059,1147.446167 
z"/>
<path fill="#119EC5" opacity="1.000000" stroke="none" 
	d="
M2281.518311,1144.196045 
	C2282.015381,1144.666382 2282.104492,1145.444214 2282.202637,1146.809570 
	C2281.844238,1146.432495 2281.477295,1145.468140 2281.518311,1144.196045 
z"/>
<path fill="#119EC5" opacity="1.000000" stroke="none" 
	d="
M2358.348145,1147.376343 
	C2357.889893,1146.598511 2357.969727,1145.750732 2358.150635,1144.272217 
	C2358.463135,1144.863037 2358.674805,1146.084839 2358.348145,1147.376343 
z"/>
<path fill="#357F74" opacity="1.000000" stroke="none" 
	d="
M2478.014160,851.699402 
	C2477.739014,851.831177 2477.958496,850.906555 2478.076172,850.446777 
	C2478.705566,850.492859 2478.737549,851.019714 2478.014160,851.699402 
z"/>
<path fill="#119EC5" opacity="1.000000" stroke="none" 
	d="
M753.375488,1145.845947 
	C753.686646,1145.603516 754.029419,1146.470703 754.109009,1146.930054 
	C753.813904,1146.955811 753.439148,1146.522095 753.375488,1145.845947 
z"/>
<path fill="#119EC5" opacity="1.000000" stroke="none" 
	d="
M973.364624,1145.837891 
	C973.678284,1145.593262 974.022827,1146.468628 974.104492,1146.931885 
	C973.807800,1146.957520 973.429382,1146.519897 973.364624,1145.837891 
z"/>
<path fill="#119EC5" opacity="1.000000" stroke="none" 
	d="
M1370.218262,1147.396973 
	C1369.891602,1147.064575 1369.969727,1146.735107 1370.254028,1145.940552 
	C1370.708008,1145.928345 1370.999756,1146.365601 1371.169678,1146.845947 
	C1371.207642,1146.952759 1370.816528,1147.211426 1370.218262,1147.396973 
z"/>
<path fill="#46714E" opacity="1.000000" stroke="none" 
	d="
M2119.739258,990.236206 
	C2122.721191,1000.863647 2125.554688,1010.696716 2128.750977,1021.787903 
	C2103.389160,1022.856323 2079.306885,1022.151001 2053.124756,1022.338074 
	C2068.678711,988.583435 2083.494385,956.431763 2098.309814,924.280090 
	C2099.001221,924.228027 2099.692871,924.175903 2100.384277,924.123840 
	C2106.786377,945.896545 2113.188721,967.669189 2119.739258,990.236206 
z"/>
<path fill="#46714E" opacity="1.000000" stroke="none" 
	d="
M826.334351,1068.481201 
	C827.900879,1046.717651 829.463257,1025.905884 831.087769,1004.266113 
	C849.438171,1003.169800 867.273926,1003.061401 884.593567,1008.498169 
	C891.171509,1010.563049 897.879456,1013.374817 903.419922,1017.379456 
	C925.461853,1033.310791 928.000366,1068.796631 909.306641,1089.272583 
	C897.579224,1102.118042 882.364502,1107.225220 865.915771,1109.521973 
	C855.318054,1111.001587 844.640320,1110.810913 834.238770,1107.694336 
	C827.150818,1105.570679 825.706177,1103.827515 825.715820,1096.391113 
	C825.727417,1087.404785 826.108826,1078.418945 826.334351,1068.481201 
z"/>
<path fill="#46714E" opacity="1.000000" stroke="none" 
	d="
M835.711121,933.758545 
	C837.394409,917.729248 839.045593,902.624573 840.755798,886.980713 
	C857.882690,885.840393 874.018005,884.600830 889.722107,890.413025 
	C913.773926,899.314697 920.290649,926.308411 903.019531,945.465881 
	C896.180725,953.051575 887.794434,958.130676 878.044983,961.247131 
	C863.960571,965.749146 849.704956,967.520264 833.558716,965.456787 
	C834.284607,954.921387 834.981873,944.802246 835.711121,933.758545 
z"/>
<path fill="#46714E" opacity="1.000000" stroke="none" 
	d="
M1405.324463,886.331421 
	C1413.590454,888.195190 1421.301758,889.209229 1428.225708,892.105591 
	C1439.690674,896.901611 1445.182617,906.612366 1446.204590,918.803162 
	C1448.252075,943.228638 1435.247192,963.983093 1412.313599,973.122986 
	C1398.797363,978.509705 1385.944336,979.671631 1371.906250,976.298645 
	C1372.501221,967.130920 1372.965332,957.668335 1373.760498,948.233643 
	C1375.182861,931.354065 1376.674683,914.477966 1378.389893,897.626099 
	C1379.508911,886.631409 1380.000854,886.391724 1391.426392,886.330017 
	C1395.756104,886.306580 1400.086060,886.327026 1405.324463,886.331421 
z"/>
<path fill="#46714E" opacity="1.000000" stroke="none" 
	d="
M1107.501221,979.476685 
	C1116.332886,960.579041 1124.827271,942.355347 1133.321655,924.131653 
	C1134.058594,924.186462 1134.795410,924.241333 1135.532227,924.296143 
	C1144.831055,956.504578 1154.129883,988.712952 1163.660156,1021.722656 
	C1137.912109,1021.722656 1113.824707,1021.722656 1088.037720,1021.722656 
	C1094.761353,1007.108704 1100.962646,993.629639 1107.501221,979.476685 
z"/>
</svg>