<svg version="1.1" id="Layer_1" xmlns="http://www.w3.org/2000/svg" xmlns:xlink="http://www.w3.org/1999/xlink" x="0px" y="0px"
	 width="100%" viewBox="0 0 3840 2160" enable-background="new 0 0 3840 2160" xml:space="preserve">
<path fill="#47704C" opacity="1.000000" stroke="none" 
	d="
M2160.000000,2162.000000 
	C1440.000122,2162.000000 721.000244,2162.000000 2.000289,2162.000000 
	C2.000193,1442.000244 2.000193,722.000488 2.000097,2.000579 
	C1281.999512,2.000386 2561.999023,2.000386 3841.999023,2.000193 
	C3841.999268,721.999329 3841.999268,1441.998657 3841.999512,2161.999023 
	C3281.666748,2162.000000 2721.333252,2162.000000 2160.000000,2162.000000 
M1069.956177,814.041321 
	C1069.956177,814.041321 1069.937500,813.968201 1070.839233,813.599609 
	C1071.424194,813.293640 1071.918457,812.879456 1073.662964,811.947205 
	C1076.874390,810.193298 1080.089478,808.446228 1083.296509,806.684448 
	C1113.640381,790.014648 1143.810913,773.018799 1174.385742,756.783997 
	C1194.963257,745.857605 1216.292480,736.353699 1236.961304,725.590820 
	C1266.790771,710.057678 1296.384399,694.067017 1325.961426,678.054993 
	C1339.304565,670.831360 1339.519409,670.680908 1347.105225,684.187622 
	C1348.245117,686.217529 1349.396851,688.285828 1350.173462,690.467896 
	C1356.309692,707.708130 1363.311890,724.711853 1368.249512,742.293396 
	C1382.572266,793.293701 1385.683960,845.965149 1389.543091,898.431824 
	C1391.349365,922.988464 1391.418091,947.671936 1392.341675,972.295410 
	C1392.568237,978.338196 1392.965698,984.390747 1395.995850,990.170776 
	C1399.382324,984.124573 1401.986572,978.062500 1404.170654,971.852661 
	C1415.906128,938.487671 1424.488037,904.348755 1431.372437,869.619324 
	C1441.807495,816.978210 1451.506714,764.252197 1457.161987,710.876648 
	C1461.055420,674.129150 1465.285156,637.302612 1459.614258,600.325256 
	C1458.840820,595.281982 1460.715942,592.415588 1464.710449,589.566284 
	C1475.807617,581.650330 1486.613525,573.322937 1497.465454,565.067444 
	C1516.559082,550.542358 1528.803345,530.850891 1538.920654,509.614166 
	C1539.952271,507.448578 1540.212891,504.915588 1541.117432,501.460358 
	C1537.525635,501.460358 1535.289673,501.326141 1533.074341,501.482452 
	C1520.450439,502.373260 1507.817871,503.178619 1495.213867,504.300720 
	C1465.361450,506.958313 1435.394043,508.962708 1406.258179,516.632263 
	C1399.874390,518.312744 1394.807495,516.814575 1389.192017,513.927551 
	C1369.074829,503.585052 1349.012939,493.045685 1328.371704,483.831757 
	C1291.238159,467.255859 1253.247192,452.868988 1213.936890,442.132690 
	C1188.231323,435.112091 1162.771729,427.169647 1136.989258,420.457153 
	C1085.974121,407.175262 1034.035889,398.797272 981.715759,392.708466 
	C972.629883,391.651093 963.488770,391.068207 954.373169,390.266144 
	C954.840088,392.700348 955.666077,393.680115 956.719788,394.172516 
	C964.560730,397.836609 972.618164,401.074829 980.286438,405.064087 
	C1002.448425,416.593323 1024.643799,428.080231 1046.486938,440.195374 
	C1079.972412,458.767883 1113.661743,477.052795 1146.332031,496.987976 
	C1169.595215,511.183014 1191.361938,527.838379 1213.692261,543.544189 
	C1216.482422,545.506714 1218.632935,548.378723 1222.594238,552.346008 
	C1217.184814,553.922363 1213.895386,555.284363 1210.476807,555.816589 
	C1160.009033,563.674377 1110.714355,576.843506 1061.589844,590.264709 
	C1000.516907,606.950378 940.738342,627.890015 881.941650,651.426514 
	C864.022949,658.599487 846.686707,667.234985 829.146667,675.336975 
	C826.759705,676.439514 823.413818,677.112915 823.303406,682.088318 
	C842.106079,680.408936 859.759277,675.584595 877.720215,672.760437 
	C895.489624,669.966309 913.250183,667.092773 931.064758,664.614441 
	C949.207336,662.090637 967.396912,659.884766 985.591980,657.763306 
	C1003.784363,655.642151 1021.997803,653.685913 1040.222656,651.863647 
	C1058.443848,650.041687 1076.682739,648.380432 1094.928711,646.823669 
	C1112.841919,645.295471 1130.752808,643.401978 1148.703979,642.746887 
	C1166.764648,642.087830 1184.811890,638.552063 1204.014038,640.774170 
	C1202.872070,643.769409 1202.538818,645.769592 1201.480469,647.251831 
	C1182.722046,673.525269 1164.732178,700.409424 1144.795898,725.761719 
	C1126.495972,749.033325 1106.047485,770.612976 1086.612671,792.996277 
	C1081.384033,799.018066 1076.399902,805.252014 1070.705078,812.201477 
	C1070.489502,812.832458 1070.273926,813.463501 1069.956177,814.041321 
M994.154236,1543.814697 
	C990.990662,1545.649170 987.770935,1547.393921 984.672729,1549.332764 
	C966.898804,1560.456299 949.411987,1572.066772 931.327148,1582.657227 
	C912.653381,1593.592651 893.437378,1603.606567 874.381836,1613.881104 
	C871.344604,1615.518555 867.903931,1616.407715 863.391846,1618.120361 
	C862.248962,1612.230103 860.958557,1607.807373 860.598022,1603.310059 
	C859.454041,1589.037720 858.726135,1574.732544 857.674622,1560.452026 
	C857.427673,1557.098389 856.540161,1553.792114 855.947388,1550.463989 
	C855.172791,1550.278809 854.398254,1550.093628 853.623657,1549.908447 
	C851.135559,1552.840088 848.536377,1555.685303 846.178040,1558.717896 
	C833.710510,1574.750244 821.570496,1591.045776 808.797791,1606.829956 
	C796.861450,1621.580444 784.414246,1635.927734 771.859253,1650.158813 
	C769.356873,1652.995117 765.610901,1655.526855 761.992371,1656.449219 
	C745.863525,1660.560913 729.730835,1665.128662 713.306335,1667.507324 
	C683.007141,1671.895752 652.600708,1675.941162 621.856201,1675.928223 
	C619.423523,1675.927124 616.990540,1676.767456 614.557678,1677.216797 
	C618.092651,1680.759033 621.862122,1682.730225 625.679688,1684.603149 
	C647.919312,1695.513794 671.294373,1703.214355 695.247009,1709.328491 
	C699.184937,1710.333618 702.937500,1712.065186 708.754822,1714.180664 
	C693.137939,1728.426025 679.311218,1741.302002 664.292297,1752.825317 
	C649.524231,1764.156250 633.237549,1773.495361 619.585999,1786.528442 
	C622.857483,1786.795654 625.809570,1786.576904 628.573669,1785.738037 
	C657.573547,1776.938232 686.803101,1768.794922 715.447754,1758.952515 
	C743.507202,1749.311157 770.303650,1736.507935 796.405945,1722.286377 
	C801.157410,1719.697510 807.006042,1718.295166 812.449097,1717.954102 
	C830.717834,1716.809082 849.037842,1716.505737 867.324463,1715.601807 
	C871.067993,1715.416748 874.752014,1714.025513 879.142822,1713.037231 
	C878.271545,1708.600220 877.745117,1705.365234 876.991577,1702.184082 
	C874.534241,1691.810059 872.110718,1681.425537 869.443176,1671.104614 
	C867.754272,1664.570435 869.249512,1659.701416 874.762451,1655.371216 
	C907.267090,1629.840698 938.592346,1602.944458 967.683838,1573.532104 
	C977.279480,1563.830688 986.722534,1553.978638 996.404846,1543.926270 
	C996.404846,1543.926270 996.156982,1543.361206 996.156982,1543.361206 
	C996.156982,1543.361206 995.513306,1543.457886 994.154236,1543.814697 
M336.022217,1748.140381 
	C336.022217,1748.140381 336.012817,1747.987549 336.119446,1746.320312 
	C335.207214,1741.416260 334.522003,1736.457153 333.345245,1731.617432 
	C326.676056,1704.189209 324.614746,1676.389160 326.423889,1648.271240 
	C327.152618,1636.945068 329.176331,1635.537476 340.047119,1638.371582 
	C341.981445,1638.875854 343.901581,1639.435913 345.822601,1639.989868 
	C393.766418,1653.818604 442.864136,1660.497925 492.530457,1663.617310 
	C496.048615,1663.838257 499.592712,1663.646240 503.124725,1663.646240 
	C503.286591,1662.898804 503.448456,1662.151245 503.610321,1661.403809 
	C499.511444,1659.609741 495.450226,1657.723267 491.307983,1656.035767 
	C444.050476,1636.781128 400.351166,1611.673828 362.106323,1577.582397 
	C358.143127,1574.049561 354.300201,1570.378296 350.268036,1566.927124 
	C346.762695,1563.926880 345.929382,1560.490967 347.601166,1556.221069 
	C351.605621,1545.992798 354.568420,1535.228516 359.655304,1525.578613 
	C370.826569,1504.386230 383.026581,1483.734985 394.865845,1462.896606 
	C398.063812,1457.267944 402.162720,1452.059692 403.278290,1444.714966 
	C399.641541,1444.714966 396.664459,1444.344604 393.807556,1444.773926 
	C371.736145,1448.090698 349.663818,1451.414917 327.640533,1455.033936 
	C310.876251,1457.788696 294.197052,1461.057861 277.453156,1463.942139 
	C268.868713,1465.420654 268.136292,1464.931396 263.914490,1457.447998 
	C263.095856,1455.996948 262.230316,1454.559692 261.561157,1453.039185 
	C251.637573,1430.490601 240.880981,1408.258545 232.104202,1385.270874 
	C224.515152,1365.394043 218.539871,1344.827881 213.030075,1324.250732 
	C207.261612,1302.707642 202.908188,1280.786011 197.899887,1259.038208 
	C197.560760,1257.565552 196.916260,1256.163208 195.595291,1252.390503 
	C194.744797,1256.238770 194.237122,1257.713501 194.112671,1259.219971 
	C191.343781,1292.734375 187.693146,1326.210938 186.195038,1359.783325 
	C185.128784,1383.677856 186.521164,1407.724365 187.688263,1431.660400 
	C188.367935,1445.599487 190.796173,1459.451416 192.380814,1473.348877 
	C193.305511,1481.458740 192.816559,1482.166626 184.950455,1484.761719 
	C182.737015,1485.491943 180.471298,1486.062256 178.236801,1486.730103 
	C151.078644,1494.848389 124.280731,1503.967163 98.421799,1515.662231 
	C95.595131,1516.940796 92.938896,1518.596069 89.166565,1520.637817 
	C91.943008,1522.926880 93.290527,1524.343506 94.904549,1525.319336 
	C106.016571,1532.037231 117.291985,1538.489990 128.313263,1545.351807 
	C158.059860,1563.871826 189.608337,1578.988647 220.921432,1594.540161 
	C226.902588,1597.510620 230.731201,1601.671631 233.859528,1607.605713 
	C244.419250,1627.636353 254.298111,1648.226562 266.950378,1666.900146 
	C281.292297,1688.067383 298.034149,1707.654785 314.372131,1727.399902 
	C320.674988,1735.017334 328.735229,1741.180664 336.022217,1748.140381 
M215.552307,1181.878906 
	C217.385269,1180.449097 219.312332,1179.123779 221.036911,1177.573486 
	C242.575775,1158.211060 263.648590,1138.302856 285.698151,1119.542114 
	C325.009064,1086.094849 364.623352,1052.987793 404.713684,1020.482178 
	C418.366272,1009.412598 433.756561,1000.463867 448.512177,990.789124 
	C453.759064,987.348938 455.698700,988.273804 458.361786,994.188171 
	C458.771362,995.097839 459.108551,996.044434 459.419037,996.993713 
	C470.293091,1030.242798 480.911591,1063.578369 492.111023,1096.717529 
	C500.211884,1120.687866 509.052429,1144.408936 517.652344,1168.208862 
	C518.616943,1170.878296 520.163574,1173.337280 522.098083,1177.211304 
	C523.123779,1174.621460 523.748169,1173.537109 523.985291,1172.373779 
	C529.307434,1146.263672 534.801086,1120.186279 539.826416,1094.018799 
	C548.271057,1050.046387 560.440613,1007.115601 577.215576,965.657104 
	C587.633667,939.909180 581.041687,942.185059 614.036011,936.412537 
	C672.136475,926.247620 730.706604,926.070068 789.325684,930.655273 
	C832.850281,934.059753 876.061279,940.092712 919.054504,947.682800 
	C921.505859,948.115540 924.060730,947.961914 928.877502,948.191040 
	C925.226013,945.503418 923.589478,943.948425 921.666748,942.937744 
	C902.227722,932.719788 882.896667,922.279907 863.239136,912.497437 
	C812.040649,887.018616 758.510254,867.774963 702.973267,854.263184 
	C681.950623,849.148499 660.633240,845.249573 639.464783,840.728149 
	C630.220154,838.753479 628.840332,837.282715 632.544861,828.544189 
	C640.069275,810.795044 648.074890,793.212891 656.766235,776.008484 
	C662.598267,764.464050 669.949646,753.687317 676.716675,742.208313 
	C676.716675,742.208313 676.407837,741.652039 676.407837,741.652039 
	C676.407837,741.652039 675.779297,741.744080 674.178406,741.803955 
	C668.702087,743.176697 663.112061,744.206848 657.768250,745.979004 
	C627.960999,755.864258 599.551331,769.135376 572.173279,784.261169 
	C550.366516,796.309021 529.738098,810.508423 508.754883,824.014160 
	C504.001556,827.073730 499.247650,828.413513 493.710388,827.987671 
	C484.756592,827.299255 475.790588,826.495605 466.819794,826.349487 
	C424.856628,825.665710 382.953827,826.230774 341.263214,832.052856 
	C304.615265,837.170654 268.284576,843.706055 232.794830,854.375061 
	C229.776535,855.282349 226.880722,856.597046 223.928024,857.722473 
	C227.292358,860.015015 230.387329,860.861633 233.539154,861.285767 
	C254.308929,864.080078 275.105347,866.678711 295.865540,869.541077 
	C326.192902,873.722717 354.847595,883.088135 381.563629,898.087463 
	C386.465637,900.839539 390.940765,904.393127 395.445770,907.797852 
	C398.806976,910.338013 398.535950,912.806519 395.556091,916.047485 
	C380.932678,931.952209 366.366913,947.920227 352.174133,964.208496 
	C324.985992,995.410889 301.664825,1029.555054 279.632355,1064.411621 
	C259.199646,1096.737427 241.026993,1130.496826 222.068695,1163.744507 
	C218.794830,1169.485962 216.565582,1175.822998 213.720306,1182.044067 
	C213.720306,1182.044067 214.281876,1182.342285 215.552307,1181.878906 
M783.655762,1227.333130 
	C784.434082,1288.491943 786.001587,1349.658936 780.927063,1411.685181 
	C785.577698,1411.930664 789.473633,1412.311035 793.369873,1412.314941 
	C836.351990,1412.358154 879.335144,1412.515137 922.315491,1412.236694 
	C934.928589,1412.155151 947.601746,1411.372314 960.127686,1409.895386 
	C985.124084,1406.948120 1008.817200,1400.241699 1030.706299,1386.863037 
	C1055.023804,1372.000366 1058.421631,1341.311768 1043.867188,1321.759155 
	C1032.918213,1307.050171 1017.516602,1298.659912 1000.752991,1292.464111 
	C995.022766,1290.346069 989.072144,1288.824219 983.222229,1287.030029 
	C983.259766,1286.320435 983.297363,1285.610840 983.334900,1284.901245 
	C986.307068,1283.749756 989.263245,1282.554810 992.254272,1281.454590 
	C1003.636536,1277.267212 1013.975708,1271.272827 1022.977600,1263.160278 
	C1043.190796,1244.943848 1042.682251,1219.982300 1021.376831,1203.036865 
	C1011.671448,1195.317627 1000.065796,1190.990845 988.138245,1187.680420 
	C968.441284,1182.213623 948.324646,1179.769165 927.944336,1179.708374 
	C882.963440,1179.573975 837.981995,1179.645508 793.000793,1179.699219 
	C789.491028,1179.703369 785.981873,1180.224365 781.322083,1180.596924 
	C782.139038,1196.297363 782.896545,1210.856567 783.655762,1227.333130 
M3058.965576,1412.342407 
	C3075.163818,1410.724487 3091.538086,1410.091797 3107.513916,1407.231567 
	C3126.189941,1403.888062 3144.386719,1398.338135 3160.567871,1387.656616 
	C3187.630859,1369.791382 3191.090576,1338.312744 3168.659424,1315.053467 
	C3157.459473,1303.440186 3143.999023,1296.159668 3128.609619,1291.870361 
	C3123.713135,1290.505737 3118.475098,1289.510132 3113.024414,1285.217651 
	C3117.925781,1283.259766 3121.489990,1281.697876 3125.147949,1280.400513 
	C3136.604736,1276.336792 3146.943604,1270.396851 3155.605469,1261.846191 
	C3174.936279,1242.762939 3170.789551,1211.969482 3147.139893,1199.153198 
	C3141.890381,1196.308472 3136.337402,1193.965210 3130.777832,1191.760376 
	C3107.511475,1182.532715 3083.061768,1179.888672 3058.331543,1179.739990 
	C3013.696777,1179.471558 2969.059082,1179.647095 2924.422607,1179.688110 
	C2920.860840,1179.691284 2917.299805,1180.086548 2912.543945,1180.370972 
	C2917.048340,1257.764771 2918.245605,1334.335083 2912.245117,1412.343018 
	C2961.255371,1412.343018 3009.115723,1412.343018 3058.965576,1412.342407 
M1321.564209,1412.339355 
	C1336.092773,1412.190063 1350.647217,1412.691772 1366.085449,1411.965942 
	C1359.908569,1334.064453 1361.376953,1257.487183 1365.529907,1181.187134 
	C1353.397827,1178.792969 1306.369507,1179.202271 1297.646851,1181.845581 
	C1298.783936,1226.970703 1301.731201,1272.394653 1302.277466,1318.506958 
	C1300.170898,1317.678589 1299.523560,1316.098267 1298.499878,1314.819214 
	C1289.990356,1304.185913 1281.561768,1293.482422 1272.825073,1283.037231 
	C1245.721191,1250.632935 1218.461060,1218.359131 1191.348267,1185.962158 
	C1187.666748,1181.563110 1183.498169,1179.481323 1177.587402,1179.563721 
	C1157.604858,1179.842896 1137.615967,1179.635620 1117.629761,1179.709717 
	C1114.740845,1179.720459 1111.853638,1180.252563 1108.776489,1180.562500 
	C1109.749268,1219.443848 1111.442871,1257.580200 1111.450439,1295.716919 
	C1111.458130,1334.137939 1109.790771,1372.559326 1108.859619,1410.886353 
	C1119.758179,1413.210327 1166.933350,1412.847290 1175.619507,1410.124634 
	C1172.596436,1356.559937 1171.045288,1302.632812 1173.447998,1247.816040 
	C1175.239868,1248.302124 1175.385620,1249.776611 1176.154785,1250.767212 
	C1185.735962,1263.107056 1195.073975,1275.657715 1205.130127,1287.602173 
	C1222.682617,1308.450439 1240.763184,1328.853516 1258.488037,1349.557983 
	C1274.501099,1368.262939 1290.483643,1386.998779 1306.139404,1406.001465 
	C1309.912598,1410.581299 1313.884155,1413.028687 1321.564209,1412.339355 
M2590.192871,1180.523926 
	C2519.704102,1178.307007 2449.503662,1178.778687 2440.219727,1181.715088 
	C2440.917236,1200.752808 2441.718994,1219.962036 2442.298096,1239.177979 
	C2442.868652,1258.129150 2443.562500,1277.086914 2443.560059,1296.041870 
	C2443.557617,1315.334961 2442.883545,1334.631226 2442.299561,1353.920044 
	C2441.721436,1373.015381 2440.887939,1392.102905 2440.126709,1412.246460 
	C2467.307617,1412.307617 2493.075195,1412.604004 2518.559326,1412.072144 
	C2517.569824,1377.406860 2516.212891,1344.231445 2515.790283,1311.043945 
	C2515.363281,1277.527832 2515.031006,1243.970093 2518.422607,1210.506348 
	C2521.810059,1209.702148 2524.372070,1208.632324 2526.965088,1208.551147 
	C2547.951172,1207.894043 2569.043701,1207.394409 2589.463379,1213.014648 
	C2597.633545,1215.263428 2605.344238,1219.689453 2612.766113,1223.984497 
	C2618.321045,1227.199219 2621.882324,1232.611206 2623.724854,1238.978149 
	C2627.310303,1251.371216 2622.645752,1264.727905 2611.508301,1273.434082 
	C2595.158936,1286.214478 2576.086426,1289.272583 2556.063232,1288.841309 
	C2552.277100,1288.759888 2548.494629,1288.509033 2543.426025,1288.277710 
	C2549.384766,1296.300171 2554.009033,1303.131592 2559.238525,1309.463135 
	C2584.690674,1340.278320 2607.677246,1372.924927 2630.689453,1405.543701 
	C2634.157715,1410.459717 2637.852051,1412.513062 2643.821533,1412.441040 
	C2666.138672,1412.171875 2688.460693,1412.364746 2710.780762,1412.293579 
	C2713.612793,1412.284546 2716.442871,1411.738159 2721.566406,1411.199951 
	C2711.114746,1398.568359 2701.977783,1387.415894 2692.718750,1376.365601 
	C2683.314209,1365.142090 2674.194336,1353.640747 2664.203613,1342.959106 
	C2654.306152,1332.377441 2645.306396,1321.261353 2637.168701,1309.517090 
	C2649.729736,1303.888306 2661.322021,1298.941650 2672.693115,1293.530518 
	C2684.685303,1287.823853 2692.523926,1278.401367 2696.860840,1265.759521 
	C2703.610352,1246.083496 2699.197510,1217.453491 2677.596680,1204.840820 
	C2667.358154,1198.862671 2656.308594,1193.409302 2644.916260,1190.473877 
	C2627.607422,1186.013916 2609.680664,1183.952271 2590.192871,1180.523926 
M3245.942139,1332.804688 
	C3231.005127,1358.526733 3215.125488,1383.734863 3201.878174,1411.112183 
	C3204.446045,1411.672485 3205.708252,1412.183350 3206.972656,1412.188354 
	C3225.960449,1412.264038 3244.949463,1412.178955 3263.935791,1412.362915 
	C3268.804688,1412.410034 3270.875977,1409.972900 3272.611328,1405.835571 
	C3278.402588,1392.026733 3284.641357,1378.406128 3290.500244,1364.624878 
	C3292.575195,1359.744629 3295.587891,1357.569946 3301.128906,1357.604004 
	C3334.107910,1357.806763 3367.090332,1357.839966 3400.068604,1357.574097 
	C3406.094971,1357.525513 3409.028076,1360.121094 3411.415771,1365.125366 
	C3417.866455,1378.646240 3424.946045,1391.873291 3431.153809,1405.500488 
	C3433.451416,1410.544067 3436.272949,1412.463989 3441.690918,1412.409668 
	C3463.342529,1412.192261 3484.997803,1412.346069 3506.651123,1412.255981 
	C3508.747314,1412.247192 3510.840088,1411.500977 3513.598633,1410.969116 
	C3512.362793,1408.305054 3511.640625,1406.500366 3510.720215,1404.803223 
	C3502.799805,1390.198120 3494.968506,1375.542358 3486.873535,1361.034180 
	C3463.206543,1318.617065 3439.402588,1276.276489 3415.710938,1233.873291 
	C3406.790527,1217.906982 3397.918701,1201.911133 3389.271973,1185.796021 
	C3386.944336,1181.458618 3384.021973,1179.530273 3379.047852,1179.608398 
	C3365.059570,1179.828003 3351.060547,1179.896606 3337.076416,1179.568481 
	C3331.587891,1179.439819 3328.825439,1181.596924 3326.399170,1186.388306 
	C3317.989990,1202.993652 3309.303711,1219.469360 3300.299072,1235.760010 
	C3282.598389,1267.782593 3264.613281,1299.647949 3245.942139,1332.804688 
M2140.737305,1329.590942 
	C2136.405518,1337.448486 2132.206299,1345.382690 2127.713623,1353.147095 
	C2118.878174,1368.417358 2109.820801,1383.559448 2100.989502,1398.832275 
	C2098.776855,1402.659302 2097.074219,1406.781372 2094.621338,1411.830078 
	C2118.588867,1411.830078 2140.817627,1411.830078 2163.690430,1411.830078 
	C2165.270264,1408.151367 2166.866699,1404.537354 2168.380859,1400.889160 
	C2172.969971,1389.832886 2177.767090,1378.854492 2182.010498,1367.666382 
	C2184.724609,1360.509766 2188.932861,1357.443970 2196.938721,1357.543701 
	C2228.585693,1357.937256 2260.242920,1357.906738 2291.890381,1357.531738 
	C2299.062500,1357.446655 2302.750244,1360.229614 2305.515381,1366.411865 
	C2311.343018,1379.441650 2317.887207,1392.151733 2323.671875,1405.199463 
	C2326.047363,1410.557129 2329.336426,1412.501953 2335.122559,1412.431152 
	C2356.775879,1412.166382 2378.434326,1412.350708 2400.090576,1412.273193 
	C2402.210693,1412.265625 2404.328613,1411.616821 2407.498291,1411.091553 
	C2405.270508,1406.645386 2403.639404,1403.064453 2401.732178,1399.637207 
	C2389.109131,1376.953735 2376.416260,1354.309204 2363.766846,1331.640381 
	C2344.474609,1297.067749 2325.232178,1262.466919 2305.899658,1227.916748 
	C2298.097656,1213.973633 2290.045654,1200.170654 2282.254150,1186.221802 
	C2279.988281,1182.165527 2277.441162,1179.506714 2272.243408,1179.602661 
	C2257.921875,1179.866943 2243.591797,1179.774536 2229.266113,1179.663452 
	C2225.083496,1179.631104 2222.707031,1181.372803 2220.715332,1185.072876 
	C2204.157715,1215.834351 2187.516846,1246.552734 2170.660645,1277.151489 
	C2161.186279,1294.349609 2151.256836,1311.296753 2140.737305,1329.590942 
M3570.512939,1189.544678 
	C3565.401611,1192.665283 3560.099609,1195.515259 3555.210938,1198.952271 
	C3530.842529,1216.083496 3528.306885,1254.055786 3547.991699,1272.662964 
	C3556.086914,1280.315186 3564.743896,1287.187134 3575.019775,1291.197754 
	C3597.324951,1299.903564 3619.875244,1307.995605 3642.431152,1316.040894 
	C3660.008789,1322.310669 3677.637695,1328.270508 3693.203369,1339.061768 
	C3699.272217,1343.269409 3702.293701,1348.459229 3702.274658,1355.701416 
	C3702.248779,1365.484619 3696.340332,1370.945312 3688.149902,1374.269531 
	C3671.937256,1380.849487 3654.920654,1380.321411 3637.928467,1379.050049 
	C3607.742920,1376.791382 3579.164551,1367.929565 3550.959717,1357.577271 
	C3547.357666,1356.255005 3543.629395,1355.277344 3538.320312,1353.632080 
	C3538.320312,1366.549438 3538.315918,1377.796143 3538.321289,1389.042969 
	C3538.328369,1404.382812 3538.360352,1404.241577 3553.159668,1407.247192 
	C3594.847412,1415.713867 3636.790039,1419.629150 3679.199219,1414.056152 
	C3704.546875,1410.724976 3728.168701,1403.202515 3749.858154,1388.614990 
	C3776.202881,1370.896484 3781.265381,1326.708008 3752.657471,1305.334717 
	C3741.523438,1297.016235 3729.469727,1290.905884 3716.719971,1286.149414 
	C3695.513428,1278.238281 3673.837646,1271.574463 3652.689697,1263.518799 
	C3639.368164,1258.444336 3626.544922,1252.004150 3613.701416,1245.757935 
	C3607.201172,1242.596558 3603.778076,1236.748901 3604.131592,1229.473145 
	C3604.498779,1221.913818 3609.563232,1217.580566 3616.128418,1214.943237 
	C3619.197021,1213.710693 3622.451904,1212.824097 3625.701416,1212.180176 
	C3643.623779,1208.628662 3661.633545,1209.541138 3679.210205,1213.514038 
	C3697.998047,1217.760742 3716.411865,1223.663818 3734.991943,1228.831787 
	C3738.334717,1229.761719 3741.694092,1230.632812 3745.113037,1231.549072 
	C3747.385986,1217.358276 3746.776367,1188.021973 3744.178223,1180.773804 
	C3707.907227,1174.080200 3671.318359,1169.322998 3634.185791,1172.385742 
	C3612.492920,1174.174927 3591.370361,1178.650391 3570.512939,1189.544678 
M1693.281982,1217.890747 
	C1687.494263,1209.902954 1680.038208,1203.861450 1671.251099,1199.526367 
	C1644.774902,1186.464233 1616.262451,1181.284912 1587.210449,1180.553223 
	C1542.599243,1179.430054 1497.948364,1179.861572 1453.314087,1179.698608 
	C1449.789062,1179.685669 1446.262085,1180.181641 1441.523682,1180.530396 
	C1446.233765,1258.102295 1447.402466,1334.683716 1441.134644,1411.563232 
	C1468.656616,1411.563232 1494.779053,1411.563232 1521.872803,1411.563232 
	C1520.968750,1379.788330 1517.323242,1348.830444 1518.598877,1318.493408 
	C1520.526611,1317.500000 1521.107422,1316.942139 1521.694580,1316.935547 
	C1541.631592,1316.708374 1561.574097,1316.743774 1581.505615,1316.296387 
	C1604.581299,1315.778564 1627.401001,1312.523315 1649.201782,1305.062500 
	C1661.010864,1301.021118 1673.072632,1295.648071 1682.810791,1288.045410 
	C1704.802368,1270.876709 1708.483521,1243.642944 1693.281982,1217.890747 
M1859.656982,1302.996582 
	C1859.212769,1320.954590 1858.893188,1338.916626 1858.289307,1356.869263 
	C1857.680664,1374.964722 1856.789795,1393.050537 1856.004028,1411.579102 
	C1883.286377,1411.579102 1909.072510,1411.579102 1936.277222,1411.579102 
	C1934.326172,1379.826050 1932.439941,1348.850464 1932.620605,1318.130249 
	C1934.775024,1317.377930 1935.690308,1316.785400 1936.610840,1316.776978 
	C1956.869751,1316.591187 1977.147949,1316.966675 1997.384155,1316.212769 
	C2023.430420,1315.242310 2049.087646,1311.267944 2073.462402,1301.576172 
	C2087.812012,1295.870605 2101.412354,1288.442383 2109.402344,1274.427979 
	C2123.253662,1250.133545 2119.385010,1215.119873 2082.586914,1198.093018 
	C2056.785645,1186.154541 2029.247437,1181.159790 2001.178345,1180.525635 
	C1956.568970,1179.517700 1911.928833,1179.860962 1867.301392,1179.697998 
	C1863.776367,1179.685059 1860.249634,1180.179688 1856.560303,1180.450439 
	C1857.610962,1221.349121 1858.634033,1261.173706 1859.656982,1302.996582 
M2838.341797,1188.390869 
	C2838.170410,1185.823730 2837.999023,1183.256714 2837.837891,1180.841064 
	C2825.652344,1178.770142 2768.363037,1179.269531 2759.633301,1181.777832 
	C2764.032715,1257.988647 2765.103760,1334.572510 2759.249756,1410.923706 
	C2771.847900,1413.302612 2831.421631,1412.775757 2838.868896,1410.358521 
	C2838.967041,1409.177856 2839.224609,1407.879883 2839.159912,1406.598145 
	C2838.020752,1384.023315 2836.048828,1361.458008 2835.834473,1338.875610 
	C2835.363037,1289.288696 2834.921387,1239.678101 2838.341797,1188.390869 
M814.904602,683.160706 
	C814.904602,683.160706 815.345276,682.973938 815.345276,682.973938 
	C815.345276,682.973938 814.849304,682.981934 814.904602,683.160706 
z"/>
<path fill="#018A6F" opacity="1.000000" stroke="none" 
	d="
M1071.303589,811.388550 
	C1076.399902,805.252014 1081.384033,799.018066 1086.612671,792.996277 
	C1106.047485,770.612976 1126.495972,749.033325 1144.795898,725.761719 
	C1164.732178,700.409424 1182.722046,673.525269 1201.480469,647.251831 
	C1202.538818,645.769592 1202.872070,643.769409 1204.014038,640.774170 
	C1184.811890,638.552063 1166.764648,642.087830 1148.703979,642.746887 
	C1130.752808,643.401978 1112.841919,645.295471 1094.928711,646.823669 
	C1076.682739,648.380432 1058.443848,650.041687 1040.222656,651.863647 
	C1021.997803,653.685913 1003.784363,655.642151 985.591980,657.763306 
	C967.396912,659.884766 949.207336,662.090637 931.064758,664.614441 
	C913.250183,667.092773 895.489624,669.966309 877.720215,672.760437 
	C859.759277,675.584595 842.106079,680.408936 823.303406,682.088318 
	C823.413818,677.112915 826.759705,676.439514 829.146667,675.336975 
	C846.686707,667.234985 864.022949,658.599487 881.941650,651.426514 
	C940.738342,627.890015 1000.516907,606.950378 1061.589844,590.264709 
	C1110.714355,576.843506 1160.009033,563.674377 1210.476807,555.816589 
	C1213.895386,555.284363 1217.184814,553.922363 1222.594238,552.346008 
	C1218.632935,548.378723 1216.482422,545.506714 1213.692261,543.544189 
	C1191.361938,527.838379 1169.595215,511.183014 1146.332031,496.987976 
	C1113.661743,477.052795 1079.972412,458.767883 1046.486938,440.195374 
	C1024.643799,428.080231 1002.448425,416.593323 980.286438,405.064087 
	C972.618164,401.074829 964.560730,397.836609 956.719788,394.172516 
	C955.666077,393.680115 954.840088,392.700348 954.373169,390.266144 
	C963.488770,391.068207 972.629883,391.651093 981.715759,392.708466 
	C1034.035889,398.797272 1085.974121,407.175262 1136.989258,420.457153 
	C1162.771729,427.169647 1188.231323,435.112091 1213.936890,442.132690 
	C1253.247192,452.868988 1291.238159,467.255859 1328.371704,483.831757 
	C1349.012939,493.045685 1369.074829,503.585052 1389.192017,513.927551 
	C1394.807495,516.814575 1399.874390,518.312744 1406.258179,516.632263 
	C1435.394043,508.962708 1465.361450,506.958313 1495.213867,504.300720 
	C1507.817871,503.178619 1520.450439,502.373260 1533.074341,501.482452 
	C1535.289673,501.326141 1537.525635,501.460358 1541.117432,501.460358 
	C1540.212891,504.915588 1539.952271,507.448578 1538.920654,509.614166 
	C1528.803345,530.850891 1516.559082,550.542358 1497.465454,565.067444 
	C1486.613525,573.322937 1475.807617,581.650330 1464.710449,589.566284 
	C1460.715942,592.415588 1458.840820,595.281982 1459.614258,600.325256 
	C1465.285156,637.302612 1461.055420,674.129150 1457.161987,710.876648 
	C1451.506714,764.252197 1441.807495,816.978210 1431.372437,869.619324 
	C1424.488037,904.348755 1415.906128,938.487671 1404.170654,971.852661 
	C1401.986572,978.062500 1399.382324,984.124573 1395.995850,990.170776 
	C1392.965698,984.390747 1392.568237,978.338196 1392.341675,972.295410 
	C1391.418091,947.671936 1391.349365,922.988464 1389.543091,898.431824 
	C1385.683960,845.965149 1382.572266,793.293701 1368.249512,742.293396 
	C1363.311890,724.711853 1356.309692,707.708130 1350.173462,690.467896 
	C1349.396851,688.285828 1348.245117,686.217529 1347.105225,684.187622 
	C1339.519409,670.680908 1339.304565,670.831360 1325.961426,678.054993 
	C1296.384399,694.067017 1266.790771,710.057678 1236.961304,725.590820 
	C1216.292480,736.353699 1194.963257,745.857605 1174.385742,756.783997 
	C1143.810913,773.018799 1113.640381,790.014648 1083.296509,806.684448 
	C1080.089478,808.446228 1076.874390,810.193298 1072.737427,811.909119 
	C1071.811890,811.871033 1071.303589,811.388550 1071.303589,811.388550 
z"/>
<path fill="#018A6F" opacity="1.000000" stroke="none" 
	d="
M676.621277,742.567078 
	C669.949646,753.687317 662.598267,764.464050 656.766235,776.008484 
	C648.074890,793.212891 640.069275,810.795044 632.544861,828.544189 
	C628.840332,837.282715 630.220154,838.753479 639.464783,840.728149 
	C660.633240,845.249573 681.950623,849.148499 702.973267,854.263184 
	C758.510254,867.774963 812.040649,887.018616 863.239136,912.497437 
	C882.896667,922.279907 902.227722,932.719788 921.666748,942.937744 
	C923.589478,943.948425 925.226013,945.503418 928.877502,948.191040 
	C924.060730,947.961914 921.505859,948.115540 919.054504,947.682800 
	C876.061279,940.092712 832.850281,934.059753 789.325684,930.655273 
	C730.706604,926.070068 672.136475,926.247620 614.036011,936.412537 
	C581.041687,942.185059 587.633667,939.909180 577.215576,965.657104 
	C560.440613,1007.115601 548.271057,1050.046387 539.826416,1094.018799 
	C534.801086,1120.186279 529.307434,1146.263672 523.985291,1172.373779 
	C523.748169,1173.537109 523.123779,1174.621460 522.098083,1177.211304 
	C520.163574,1173.337280 518.616943,1170.878296 517.652344,1168.208862 
	C509.052429,1144.408936 500.211884,1120.687866 492.111023,1096.717529 
	C480.911591,1063.578369 470.293091,1030.242798 459.419037,996.993713 
	C459.108551,996.044434 458.771362,995.097839 458.361786,994.188171 
	C455.698700,988.273804 453.759064,987.348938 448.512177,990.789124 
	C433.756561,1000.463867 418.366272,1009.412598 404.713684,1020.482178 
	C364.623352,1052.987793 325.009064,1086.094849 285.698151,1119.542114 
	C263.648590,1138.302856 242.575775,1158.211060 221.036911,1177.573486 
	C219.312332,1179.123779 217.385269,1180.449097 214.810486,1181.995850 
	C214.068649,1182.112915 213.853836,1181.885010 213.853821,1181.885010 
	C216.565582,1175.822998 218.794830,1169.485962 222.068695,1163.744507 
	C241.026993,1130.496826 259.199646,1096.737427 279.632355,1064.411621 
	C301.664825,1029.555054 324.985992,995.410889 352.174133,964.208496 
	C366.366913,947.920227 380.932678,931.952209 395.556091,916.047485 
	C398.535950,912.806519 398.806976,910.338013 395.445770,907.797852 
	C390.940765,904.393127 386.465637,900.839539 381.563629,898.087463 
	C354.847595,883.088135 326.192902,873.722717 295.865540,869.541077 
	C275.105347,866.678711 254.308929,864.080078 233.539154,861.285767 
	C230.387329,860.861633 227.292358,860.015015 223.928024,857.722473 
	C226.880722,856.597046 229.776535,855.282349 232.794830,854.375061 
	C268.284576,843.706055 304.615265,837.170654 341.263214,832.052856 
	C382.953827,826.230774 424.856628,825.665710 466.819794,826.349487 
	C475.790588,826.495605 484.756592,827.299255 493.710388,827.987671 
	C499.247650,828.413513 504.001556,827.073730 508.754883,824.014160 
	C529.738098,810.508423 550.366516,796.309021 572.173279,784.261169 
	C599.551331,769.135376 627.960999,755.864258 657.768250,745.979004 
	C663.112061,744.206848 668.702087,743.176697 675.190186,741.978943 
	C676.201904,742.153931 676.621277,742.567078 676.621277,742.567078 
z"/>
<path fill="#018A6F" opacity="1.000000" stroke="none" 
	d="
M335.994751,1748.006470 
	C328.735229,1741.180664 320.674988,1735.017334 314.372131,1727.399902 
	C298.034149,1707.654785 281.292297,1688.067383 266.950378,1666.900146 
	C254.298111,1648.226562 244.419250,1627.636353 233.859528,1607.605713 
	C230.731201,1601.671631 226.902588,1597.510620 220.921432,1594.540161 
	C189.608337,1578.988647 158.059860,1563.871826 128.313263,1545.351807 
	C117.291985,1538.489990 106.016571,1532.037231 94.904549,1525.319336 
	C93.290527,1524.343506 91.943008,1522.926880 89.166565,1520.637817 
	C92.938896,1518.596069 95.595131,1516.940796 98.421799,1515.662231 
	C124.280731,1503.967163 151.078644,1494.848389 178.236801,1486.730103 
	C180.471298,1486.062256 182.737015,1485.491943 184.950455,1484.761719 
	C192.816559,1482.166626 193.305511,1481.458740 192.380814,1473.348877 
	C190.796173,1459.451416 188.367935,1445.599487 187.688263,1431.660400 
	C186.521164,1407.724365 185.128784,1383.677856 186.195038,1359.783325 
	C187.693146,1326.210938 191.343781,1292.734375 194.112671,1259.219971 
	C194.237122,1257.713501 194.744797,1256.238770 195.595291,1252.390503 
	C196.916260,1256.163208 197.560760,1257.565552 197.899887,1259.038208 
	C202.908188,1280.786011 207.261612,1302.707642 213.030075,1324.250732 
	C218.539871,1344.827881 224.515152,1365.394043 232.104202,1385.270874 
	C240.880981,1408.258545 251.637573,1430.490601 261.561157,1453.039185 
	C262.230316,1454.559692 263.095856,1455.996948 263.914490,1457.447998 
	C268.136292,1464.931396 268.868713,1465.420654 277.453156,1463.942139 
	C294.197052,1461.057861 310.876251,1457.788696 327.640533,1455.033936 
	C349.663818,1451.414917 371.736145,1448.090698 393.807556,1444.773926 
	C396.664459,1444.344604 399.641541,1444.714966 403.278290,1444.714966 
	C402.162720,1452.059692 398.063812,1457.267944 394.865845,1462.896606 
	C383.026581,1483.734985 370.826569,1504.386230 359.655304,1525.578613 
	C354.568420,1535.228516 351.605621,1545.992798 347.601166,1556.221069 
	C345.929382,1560.490967 346.762695,1563.926880 350.268036,1566.927124 
	C354.300201,1570.378296 358.143127,1574.049561 362.106323,1577.582397 
	C400.351166,1611.673828 444.050476,1636.781128 491.307983,1656.035767 
	C495.450226,1657.723267 499.511444,1659.609741 503.610321,1661.403809 
	C503.448456,1662.151245 503.286591,1662.898804 503.124725,1663.646240 
	C499.592712,1663.646240 496.048615,1663.838257 492.530457,1663.617310 
	C442.864136,1660.497925 393.766418,1653.818604 345.822601,1639.989868 
	C343.901581,1639.435913 341.981445,1638.875854 340.047119,1638.371582 
	C329.176331,1635.537476 327.152618,1636.945068 326.423889,1648.271240 
	C324.614746,1676.389160 326.676056,1704.189209 333.345245,1731.617432 
	C334.522003,1736.457153 335.207214,1741.416260 336.059937,1747.160156 
	C336.000427,1748.000000 335.994781,1748.006470 335.994751,1748.006470 
z"/>
<path fill="#010101" opacity="1.000000" stroke="none" 
	d="
M783.654907,1226.374512 
	C782.896545,1210.856567 782.139038,1196.297363 781.322083,1180.596924 
	C785.981873,1180.224365 789.491028,1179.703369 793.000793,1179.699219 
	C837.981995,1179.645508 882.963440,1179.573975 927.944336,1179.708374 
	C948.324646,1179.769165 968.441284,1182.213623 988.138245,1187.680420 
	C1000.065796,1190.990845 1011.671448,1195.317627 1021.376831,1203.036865 
	C1042.682251,1219.982300 1043.190796,1244.943848 1022.977600,1263.160278 
	C1013.975708,1271.272827 1003.636536,1277.267212 992.254272,1281.454590 
	C989.263245,1282.554810 986.307068,1283.749756 983.334900,1284.901245 
	C983.297363,1285.610840 983.259766,1286.320435 983.222229,1287.030029 
	C989.072144,1288.824219 995.022766,1290.346069 1000.752991,1292.464111 
	C1017.516602,1298.659912 1032.918213,1307.050171 1043.867188,1321.759155 
	C1058.421631,1341.311768 1055.023804,1372.000366 1030.706299,1386.863037 
	C1008.817200,1400.241699 985.124084,1406.948120 960.127686,1409.895386 
	C947.601746,1411.372314 934.928589,1412.155151 922.315491,1412.236694 
	C879.335144,1412.515137 836.351990,1412.358154 793.369873,1412.314941 
	C789.473633,1412.311035 785.577698,1411.930664 780.927063,1411.685181 
	C786.001587,1349.658936 784.434082,1288.491943 783.654907,1226.374512 
M925.978027,1306.629150 
	C911.154968,1305.488892 896.331909,1304.348755 879.921936,1303.086548 
	C884.952271,1293.038452 889.528259,1283.578491 894.495239,1274.328369 
	C895.222778,1272.973511 897.741211,1272.201782 899.554565,1271.898193 
	C902.151978,1271.463379 904.869873,1271.814819 907.524414,1271.644897 
	C921.868896,1270.727173 936.026489,1268.981934 948.850830,1261.725098 
	C955.127869,1258.173218 960.386536,1253.612427 961.985107,1246.228516 
	C965.315613,1230.845337 959.999817,1220.490479 945.353455,1214.027954 
	C941.128113,1212.163574 936.603455,1210.777222 932.078369,1209.826904 
	C911.070618,1205.414673 889.773376,1205.711914 868.484436,1206.531738 
	C865.706909,1206.638794 862.978455,1208.019775 860.202209,1208.817993 
	C857.105286,1267.424683 856.552612,1325.139282 860.145081,1383.164307 
	C862.486938,1383.649658 864.044312,1384.058472 865.627686,1384.287598 
	C886.597717,1387.322510 907.514709,1385.426147 928.259827,1382.567749 
	C938.005188,1381.225098 947.829163,1378.361206 956.866028,1374.450073 
	C970.995789,1368.334839 978.693176,1354.523315 975.949890,1341.638306 
	C973.512085,1330.188354 965.864746,1321.902466 955.740112,1316.960205 
	C946.871094,1312.630981 937.035767,1310.281128 925.978027,1306.629150 
z"/>
<path fill="#010101" opacity="1.000000" stroke="none" 
	d="
M3057.970703,1412.342773 
	C3009.115723,1412.343018 2961.255371,1412.343018 2912.245117,1412.343018 
	C2918.245605,1334.335083 2917.048340,1257.764771 2912.543945,1180.370972 
	C2917.299805,1180.086548 2920.860840,1179.691284 2924.422607,1179.688110 
	C2969.059082,1179.647095 3013.696777,1179.471558 3058.331543,1179.739990 
	C3083.061768,1179.888672 3107.511475,1182.532715 3130.777832,1191.760376 
	C3136.337402,1193.965210 3141.890381,1196.308472 3147.139893,1199.153198 
	C3170.789551,1211.969482 3174.936279,1242.762939 3155.605469,1261.846191 
	C3146.943604,1270.396851 3136.604736,1276.336792 3125.147949,1280.400513 
	C3121.489990,1281.697876 3117.925781,1283.259766 3113.024414,1285.217651 
	C3118.475098,1289.510132 3123.713135,1290.505737 3128.609619,1291.870361 
	C3143.999023,1296.159668 3157.459473,1303.440186 3168.659424,1315.053467 
	C3191.090576,1338.312744 3187.630859,1369.791382 3160.567871,1387.656616 
	C3144.386719,1398.338135 3126.189941,1403.888062 3107.513916,1407.231567 
	C3091.538086,1410.091797 3075.163818,1410.724487 3057.970703,1412.342773 
M2991.777344,1383.052612 
	C2993.696289,1383.517334 2995.591553,1384.159790 2997.537842,1384.419556 
	C3018.195557,1387.174805 3038.778076,1385.324097 3059.234863,1382.591309 
	C3067.718506,1381.458008 3076.154297,1378.921875 3084.197998,1375.916626 
	C3089.339600,1373.995728 3094.263672,1370.637695 3098.346680,1366.899048 
	C3110.535645,1355.738525 3111.174561,1339.912354 3100.130127,1327.783447 
	C3090.096680,1316.764404 3076.955811,1310.719971 3062.722412,1308.101562 
	C3050.042725,1305.768799 3036.984131,1305.481445 3024.088623,1304.339966 
	C3020.320312,1304.006226 3016.537354,1303.838257 3011.727051,1303.527344 
	C3015.847168,1294.194946 3019.646240,1286.475342 3022.656006,1278.459351 
	C3024.637207,1273.183105 3027.798828,1271.540894 3033.193848,1271.560791 
	C3040.149658,1271.586304 3047.140869,1270.952271 3054.058838,1270.119019 
	C3064.440186,1268.868652 3074.306396,1265.736572 3082.739014,1259.386475 
	C3098.550049,1247.480225 3097.353516,1226.147705 3080.159912,1216.251465 
	C3075.058838,1213.315186 3069.205566,1211.279785 3063.438232,1209.978638 
	C3042.131592,1205.172119 3020.449463,1205.781738 2998.809570,1206.506470 
	C2996.292480,1206.590576 2993.812988,1207.785156 2990.819092,1208.600220 
	C2989.974365,1226.315063 2988.702881,1243.539673 2988.435547,1260.779785 
	C2988.032227,1286.763184 2988.049561,1312.761597 2988.441895,1338.745239 
	C2988.657227,1353.020020 2990.007568,1367.277588 2991.777344,1383.052612 
z"/>
<path fill="#000101" opacity="1.000000" stroke="none" 
	d="
M1320.646240,1412.336548 
	C1313.884155,1413.028687 1309.912598,1410.581299 1306.139404,1406.001465 
	C1290.483643,1386.998779 1274.501099,1368.262939 1258.488037,1349.557983 
	C1240.763184,1328.853516 1222.682617,1308.450439 1205.130127,1287.602173 
	C1195.073975,1275.657715 1185.735962,1263.107056 1176.154785,1250.767212 
	C1175.385620,1249.776611 1175.239868,1248.302124 1173.447998,1247.816040 
	C1171.045288,1302.632812 1172.596436,1356.559937 1175.619507,1410.124634 
	C1166.933350,1412.847290 1119.758179,1413.210327 1108.859619,1410.886353 
	C1109.790771,1372.559326 1111.458130,1334.137939 1111.450439,1295.716919 
	C1111.442871,1257.580200 1109.749268,1219.443848 1108.776489,1180.562500 
	C1111.853638,1180.252563 1114.740845,1179.720459 1117.629761,1179.709717 
	C1137.615967,1179.635620 1157.604858,1179.842896 1177.587402,1179.563721 
	C1183.498169,1179.481323 1187.666748,1181.563110 1191.348267,1185.962158 
	C1218.461060,1218.359131 1245.721191,1250.632935 1272.825073,1283.037231 
	C1281.561768,1293.482422 1289.990356,1304.185913 1298.499878,1314.819214 
	C1299.523560,1316.098267 1300.170898,1317.678589 1302.277466,1318.506958 
	C1301.731201,1272.394653 1298.783936,1226.970703 1297.646851,1181.845581 
	C1306.369507,1179.202271 1353.397827,1178.792969 1365.529907,1181.187134 
	C1361.376953,1257.487183 1359.908569,1334.064453 1366.085449,1411.965942 
	C1350.647217,1412.691772 1336.092773,1412.190063 1320.646240,1412.336548 
z"/>
<path fill="#010101" opacity="1.000000" stroke="none" 
	d="
M2591.104492,1180.697998 
	C2609.680664,1183.952271 2627.607422,1186.013916 2644.916260,1190.473877 
	C2656.308594,1193.409302 2667.358154,1198.862671 2677.596680,1204.840820 
	C2699.197510,1217.453491 2703.610352,1246.083496 2696.860840,1265.759521 
	C2692.523926,1278.401367 2684.685303,1287.823853 2672.693115,1293.530518 
	C2661.322021,1298.941650 2649.729736,1303.888306 2637.168701,1309.517090 
	C2645.306396,1321.261353 2654.306152,1332.377441 2664.203613,1342.959106 
	C2674.194336,1353.640747 2683.314209,1365.142090 2692.718750,1376.365601 
	C2701.977783,1387.415894 2711.114746,1398.568359 2721.566406,1411.199951 
	C2716.442871,1411.738159 2713.612793,1412.284546 2710.780762,1412.293579 
	C2688.460693,1412.364746 2666.138672,1412.171875 2643.821533,1412.441040 
	C2637.852051,1412.513062 2634.157715,1410.459717 2630.689453,1405.543701 
	C2607.677246,1372.924927 2584.690674,1340.278320 2559.238525,1309.463135 
	C2554.009033,1303.131592 2549.384766,1296.300171 2543.426025,1288.277710 
	C2548.494629,1288.509033 2552.277100,1288.759888 2556.063232,1288.841309 
	C2576.086426,1289.272583 2595.158936,1286.214478 2611.508301,1273.434082 
	C2622.645752,1264.727905 2627.310303,1251.371216 2623.724854,1238.978149 
	C2621.882324,1232.611206 2618.321045,1227.199219 2612.766113,1223.984497 
	C2605.344238,1219.689453 2597.633545,1215.263428 2589.463379,1213.014648 
	C2569.043701,1207.394409 2547.951172,1207.894043 2526.965088,1208.551147 
	C2524.372070,1208.632324 2521.810059,1209.702148 2518.422607,1210.506348 
	C2515.031006,1243.970093 2515.363281,1277.527832 2515.790283,1311.043945 
	C2516.212891,1344.231445 2517.569824,1377.406860 2518.559326,1412.072144 
	C2493.075195,1412.604004 2467.307617,1412.307617 2440.126709,1412.246460 
	C2440.887939,1392.102905 2441.721436,1373.015381 2442.299561,1353.920044 
	C2442.883545,1334.631226 2443.557617,1315.334961 2443.560059,1296.041870 
	C2443.562500,1277.086914 2442.868652,1258.129150 2442.298096,1239.177979 
	C2441.718994,1219.962036 2440.917236,1200.752808 2440.219727,1181.715088 
	C2449.503662,1178.778687 2519.704102,1178.307007 2591.104492,1180.697998 
z"/>
<path fill="#000101" opacity="1.000000" stroke="none" 
	d="
M3246.343994,1332.191406 
	C3264.613281,1299.647949 3282.598389,1267.782593 3300.299072,1235.760010 
	C3309.303711,1219.469360 3317.989990,1202.993652 3326.399170,1186.388306 
	C3328.825439,1181.596924 3331.587891,1179.439819 3337.076416,1179.568481 
	C3351.060547,1179.896606 3365.059570,1179.828003 3379.047852,1179.608398 
	C3384.021973,1179.530273 3386.944336,1181.458618 3389.271973,1185.796021 
	C3397.918701,1201.911133 3406.790527,1217.906982 3415.710938,1233.873291 
	C3439.402588,1276.276489 3463.206543,1318.617065 3486.873535,1361.034180 
	C3494.968506,1375.542358 3502.799805,1390.198120 3510.720215,1404.803223 
	C3511.640625,1406.500366 3512.362793,1408.305054 3513.598633,1410.969116 
	C3510.840088,1411.500977 3508.747314,1412.247192 3506.651123,1412.255981 
	C3484.997803,1412.346069 3463.342529,1412.192261 3441.690918,1412.409668 
	C3436.272949,1412.463989 3433.451416,1410.544067 3431.153809,1405.500488 
	C3424.946045,1391.873291 3417.866455,1378.646240 3411.415771,1365.125366 
	C3409.028076,1360.121094 3406.094971,1357.525513 3400.068604,1357.574097 
	C3367.090332,1357.839966 3334.107910,1357.806763 3301.128906,1357.604004 
	C3295.587891,1357.569946 3292.575195,1359.744629 3290.500244,1364.624878 
	C3284.641357,1378.406128 3278.402588,1392.026733 3272.611328,1405.835571 
	C3270.875977,1409.972900 3268.804688,1412.410034 3263.935791,1412.362915 
	C3244.949463,1412.178955 3225.960449,1412.264038 3206.972656,1412.188354 
	C3205.708252,1412.183350 3204.446045,1411.672485 3201.878174,1411.112183 
	C3215.125488,1383.734863 3231.005127,1358.526733 3246.343994,1332.191406 
M3370.838867,1286.163696 
	C3364.505371,1274.579224 3358.171875,1262.994629 3350.780029,1249.474121 
	C3336.621338,1275.830933 3321.519531,1299.256714 3309.712891,1325.799072 
	C3337.443115,1328.287354 3363.440674,1328.729736 3390.468750,1326.112427 
	C3385.948242,1311.187134 3377.803223,1299.773071 3370.838867,1286.163696 
z"/>
<path fill="#000101" opacity="1.000000" stroke="none" 
	d="
M2141.134766,1328.973999 
	C2151.256836,1311.296753 2161.186279,1294.349609 2170.660645,1277.151489 
	C2187.516846,1246.552734 2204.157715,1215.834351 2220.715332,1185.072876 
	C2222.707031,1181.372803 2225.083496,1179.631104 2229.266113,1179.663452 
	C2243.591797,1179.774536 2257.921875,1179.866943 2272.243408,1179.602661 
	C2277.441162,1179.506714 2279.988281,1182.165527 2282.254150,1186.221802 
	C2290.045654,1200.170654 2298.097656,1213.973633 2305.899658,1227.916748 
	C2325.232178,1262.466919 2344.474609,1297.067749 2363.766846,1331.640381 
	C2376.416260,1354.309204 2389.109131,1376.953735 2401.732178,1399.637207 
	C2403.639404,1403.064453 2405.270508,1406.645386 2407.498291,1411.091553 
	C2404.328613,1411.616821 2402.210693,1412.265625 2400.090576,1412.273193 
	C2378.434326,1412.350708 2356.775879,1412.166382 2335.122559,1412.431152 
	C2329.336426,1412.501953 2326.047363,1410.557129 2323.671875,1405.199463 
	C2317.887207,1392.151733 2311.343018,1379.441650 2305.515381,1366.411865 
	C2302.750244,1360.229614 2299.062500,1357.446655 2291.890381,1357.531738 
	C2260.242920,1357.906738 2228.585693,1357.937256 2196.938721,1357.543701 
	C2188.932861,1357.443970 2184.724609,1360.509766 2182.010498,1367.666382 
	C2177.767090,1378.854492 2172.969971,1389.832886 2168.380859,1400.889160 
	C2166.866699,1404.537354 2165.270264,1408.151367 2163.690430,1411.830078 
	C2140.817627,1411.830078 2118.588867,1411.830078 2094.621338,1411.830078 
	C2097.074219,1406.781372 2098.776855,1402.659302 2100.989502,1398.832275 
	C2109.820801,1383.559448 2118.878174,1368.417358 2127.713623,1353.147095 
	C2132.206299,1345.382690 2136.405518,1337.448486 2141.134766,1328.973999 
M2208.811035,1327.443726 
	C2232.723877,1327.414062 2256.636475,1327.397705 2280.549072,1327.300171 
	C2281.391846,1327.296753 2282.231689,1326.484253 2283.654053,1325.748047 
	C2279.714600,1316.927246 2276.128174,1308.130859 2271.902100,1299.653564 
	C2267.762695,1291.350708 2262.907471,1283.407227 2258.483643,1275.242554 
	C2254.034180,1267.031372 2250.348877,1258.339111 2243.816406,1250.307617 
	C2241.508301,1253.863403 2239.910889,1255.979980 2238.671387,1258.288818 
	C2230.201660,1274.064331 2221.798096,1289.875610 2213.393311,1305.686157 
	C2210.744141,1310.669678 2208.120117,1315.667847 2205.556885,1320.696045 
	C2204.260742,1323.238281 2203.463867,1325.775024 2208.811035,1327.443726 
z"/>
<path fill="#010101" opacity="1.000000" stroke="none" 
	d="
M3571.168457,1189.189453 
	C3591.370361,1178.650391 3612.492920,1174.174927 3634.185791,1172.385742 
	C3671.318359,1169.322998 3707.907227,1174.080200 3744.178223,1180.773804 
	C3746.776367,1188.021973 3747.385986,1217.358276 3745.113037,1231.549072 
	C3741.694092,1230.632812 3738.334717,1229.761719 3734.991943,1228.831787 
	C3716.411865,1223.663818 3697.998047,1217.760742 3679.210205,1213.514038 
	C3661.633545,1209.541138 3643.623779,1208.628662 3625.701416,1212.180176 
	C3622.451904,1212.824097 3619.197021,1213.710693 3616.128418,1214.943237 
	C3609.563232,1217.580566 3604.498779,1221.913818 3604.131592,1229.473145 
	C3603.778076,1236.748901 3607.201172,1242.596558 3613.701416,1245.757935 
	C3626.544922,1252.004150 3639.368164,1258.444336 3652.689697,1263.518799 
	C3673.837646,1271.574463 3695.513428,1278.238281 3716.719971,1286.149414 
	C3729.469727,1290.905884 3741.523438,1297.016235 3752.657471,1305.334717 
	C3781.265381,1326.708008 3776.202881,1370.896484 3749.858154,1388.614990 
	C3728.168701,1403.202515 3704.546875,1410.724976 3679.199219,1414.056152 
	C3636.790039,1419.629150 3594.847412,1415.713867 3553.159668,1407.247192 
	C3538.360352,1404.241577 3538.328369,1404.382812 3538.321289,1389.042969 
	C3538.315918,1377.796143 3538.320312,1366.549438 3538.320312,1353.632080 
	C3543.629395,1355.277344 3547.357666,1356.255005 3550.959717,1357.577271 
	C3579.164551,1367.929565 3607.742920,1376.791382 3637.928467,1379.050049 
	C3654.920654,1380.321411 3671.937256,1380.849487 3688.149902,1374.269531 
	C3696.340332,1370.945312 3702.248779,1365.484619 3702.274658,1355.701416 
	C3702.293701,1348.459229 3699.272217,1343.269409 3693.203369,1339.061768 
	C3677.637695,1328.270508 3660.008789,1322.310669 3642.431152,1316.040894 
	C3619.875244,1307.995605 3597.324951,1299.903564 3575.019775,1291.197754 
	C3564.743896,1287.187134 3556.086914,1280.315186 3547.991699,1272.662964 
	C3528.306885,1254.055786 3530.842529,1216.083496 3555.210938,1198.952271 
	C3560.099609,1195.515259 3565.401611,1192.665283 3571.168457,1189.189453 
z"/>
<path fill="#000101" opacity="1.000000" stroke="none" 
	d="
M1693.713867,1218.484131 
	C1708.483521,1243.642944 1704.802368,1270.876709 1682.810791,1288.045410 
	C1673.072632,1295.648071 1661.010864,1301.021118 1649.201782,1305.062500 
	C1627.401001,1312.523315 1604.581299,1315.778564 1581.505615,1316.296387 
	C1561.574097,1316.743774 1541.631592,1316.708374 1521.694580,1316.935547 
	C1521.107422,1316.942139 1520.526611,1317.500000 1518.598877,1318.493408 
	C1517.323242,1348.830444 1520.968750,1379.788330 1521.872803,1411.563232 
	C1494.779053,1411.563232 1468.656616,1411.563232 1441.134644,1411.563232 
	C1447.402466,1334.683716 1446.233765,1258.102295 1441.523682,1180.530396 
	C1446.262085,1180.181641 1449.789062,1179.685669 1453.314087,1179.698608 
	C1497.948364,1179.861572 1542.599243,1179.430054 1587.210449,1180.553223 
	C1616.262451,1181.284912 1644.774902,1186.464233 1671.251099,1199.526367 
	C1680.038208,1203.861450 1687.494263,1209.902954 1693.713867,1218.484131 
M1518.323730,1247.016357 
	C1518.340454,1257.986572 1518.403931,1268.957031 1518.351685,1279.926880 
	C1518.329468,1284.609497 1519.858765,1287.471069 1525.139893,1287.625854 
	C1548.444092,1288.309326 1571.704468,1288.244141 1594.283447,1281.452637 
	C1600.261353,1279.654419 1606.175171,1276.977905 1611.456543,1273.653198 
	C1627.456665,1263.580688 1630.503906,1243.564331 1619.169800,1228.521118 
	C1613.155762,1220.538940 1604.649414,1217.130981 1595.753174,1214.331787 
	C1573.502686,1207.330688 1550.570801,1207.625000 1527.618652,1208.435425 
	C1522.627808,1208.611694 1519.490112,1210.727661 1519.338257,1216.208008 
	C1519.072021,1225.816284 1518.669312,1235.420776 1518.323730,1247.016357 
z"/>
<path fill="#010101" opacity="1.000000" stroke="none" 
	d="
M1859.656982,1301.997559 
	C1858.634033,1261.173706 1857.610962,1221.349121 1856.560303,1180.450439 
	C1860.249634,1180.179688 1863.776367,1179.685059 1867.301392,1179.697998 
	C1911.928833,1179.860962 1956.568970,1179.517700 2001.178345,1180.525635 
	C2029.247437,1181.159790 2056.785645,1186.154541 2082.586914,1198.093018 
	C2119.385010,1215.119873 2123.253662,1250.133545 2109.402344,1274.427979 
	C2101.412354,1288.442383 2087.812012,1295.870605 2073.462402,1301.576172 
	C2049.087646,1311.267944 2023.430420,1315.242310 1997.384155,1316.212769 
	C1977.147949,1316.966675 1956.869751,1316.591187 1936.610840,1316.776978 
	C1935.690308,1316.785400 1934.775024,1317.377930 1932.620605,1318.130249 
	C1932.439941,1348.850464 1934.326172,1379.826050 1936.277222,1411.579102 
	C1909.072510,1411.579102 1883.286377,1411.579102 1856.004028,1411.579102 
	C1856.789795,1393.050537 1857.680664,1374.964722 1858.289307,1356.869263 
	C1858.893188,1338.916626 1859.212769,1320.954590 1859.656982,1301.997559 
M1943.615479,1287.671143 
	C1962.247925,1288.084351 1980.949463,1288.475708 1999.117432,1283.655518 
	C2008.020996,1281.293213 2016.904053,1278.104858 2025.081787,1273.900513 
	C2046.253540,1263.015381 2046.263672,1229.945679 2022.273438,1219.392090 
	C2018.017578,1217.519775 2013.809448,1215.418091 2009.380249,1214.081787 
	C1987.054688,1207.346558 1964.107666,1207.609375 1941.139404,1208.500488 
	C1936.648804,1208.674683 1933.716675,1210.530884 1933.642700,1215.774780 
	C1933.337402,1237.367676 1932.859985,1258.958130 1932.384766,1280.548218 
	C1932.234497,1287.374634 1936.764404,1287.774048 1943.615479,1287.671143 
z"/>
<path fill="#018A6F" opacity="1.000000" stroke="none" 
	d="
M996.235352,1544.195557 
	C986.722534,1553.978638 977.279480,1563.830688 967.683838,1573.532104 
	C938.592346,1602.944458 907.267090,1629.840698 874.762451,1655.371216 
	C869.249512,1659.701416 867.754272,1664.570435 869.443176,1671.104614 
	C872.110718,1681.425537 874.534241,1691.810059 876.991577,1702.184082 
	C877.745117,1705.365234 878.271545,1708.600220 879.142822,1713.037231 
	C874.752014,1714.025513 871.067993,1715.416748 867.324463,1715.601807 
	C849.037842,1716.505737 830.717834,1716.809082 812.449097,1717.954102 
	C807.006042,1718.295166 801.157410,1719.697510 796.405945,1722.286377 
	C770.303650,1736.507935 743.507202,1749.311157 715.447754,1758.952515 
	C686.803101,1768.794922 657.573547,1776.938232 628.573669,1785.738037 
	C625.809570,1786.576904 622.857483,1786.795654 619.585999,1786.528442 
	C633.237549,1773.495361 649.524231,1764.156250 664.292297,1752.825317 
	C679.311218,1741.302002 693.137939,1728.426025 708.754822,1714.180664 
	C702.937500,1712.065186 699.184937,1710.333618 695.247009,1709.328491 
	C671.294373,1703.214355 647.919312,1695.513794 625.679688,1684.603149 
	C621.862122,1682.730225 618.092651,1680.759033 614.557678,1677.216797 
	C616.990540,1676.767456 619.423523,1675.927124 621.856201,1675.928223 
	C652.600708,1675.941162 683.007141,1671.895752 713.306335,1667.507324 
	C729.730835,1665.128662 745.863525,1660.560913 761.992371,1656.449219 
	C765.610901,1655.526855 769.356873,1652.995117 771.859253,1650.158813 
	C784.414246,1635.927734 796.861450,1621.580444 808.797791,1606.829956 
	C821.570496,1591.045776 833.710510,1574.750244 846.178040,1558.717896 
	C848.536377,1555.685303 851.135559,1552.840088 853.623657,1549.908447 
	C854.398254,1550.093628 855.172791,1550.278809 855.947388,1550.463989 
	C856.540161,1553.792114 857.427673,1557.098389 857.674622,1560.452026 
	C858.726135,1574.732544 859.454041,1589.037720 860.598022,1603.310059 
	C860.958557,1607.807373 862.248962,1612.230103 863.391846,1618.120361 
	C867.903931,1616.407715 871.344604,1615.518555 874.381836,1613.881104 
	C893.437378,1603.606567 912.653381,1593.592651 931.327148,1582.657227 
	C949.411987,1572.066772 966.898804,1560.456299 984.672729,1549.332764 
	C987.770935,1547.393921 990.990662,1545.649170 995.014526,1543.820557 
	C995.874756,1543.826294 996.235413,1544.195557 996.235352,1544.195557 
z"/>
<path fill="#000100" opacity="1.000000" stroke="none" 
	d="
M2838.338623,1189.268677 
	C2834.921387,1239.678101 2835.363037,1289.288696 2835.834473,1338.875610 
	C2836.048828,1361.458008 2838.020752,1384.023315 2839.159912,1406.598145 
	C2839.224609,1407.879883 2838.967041,1409.177856 2838.868896,1410.358521 
	C2831.421631,1412.775757 2771.847900,1413.302612 2759.249756,1410.923706 
	C2765.103760,1334.572510 2764.032715,1257.988647 2759.633301,1181.777832 
	C2768.363037,1179.269531 2825.652344,1178.770142 2837.837891,1180.841064 
	C2837.999023,1183.256714 2838.170410,1185.823730 2838.338623,1189.268677 
z"/>
<path fill="#018A6F" opacity="1.000000" stroke="none" 
	d="
M814.876953,683.071289 
	C814.849304,682.981934 815.345276,682.973938 815.345276,682.973938 
	C815.345276,682.973938 814.904602,683.160706 814.876953,683.071289 
z"/>
<path fill="#018A6F" opacity="1.000000" stroke="none" 
	d="
M1069.937500,813.968201 
	C1069.937500,813.968201 1069.956177,814.041321 1069.978271,814.035095 
	C1070.000244,814.028870 1069.937500,813.968201 1069.937500,813.968201 
z"/>
<path fill="#018A6F" opacity="1.000000" stroke="none" 
	d="
M214.175262,1182.227539 
	C214.281876,1182.342285 213.720306,1182.044067 213.787079,1181.964600 
	C213.853836,1181.885010 214.068649,1182.112915 214.175262,1182.227539 
z"/>
<path fill="#018A6F" opacity="1.000000" stroke="none" 
	d="
M1070.029297,814.061646 
	C1070.273926,813.463501 1070.489502,812.832458 1071.004395,811.795044 
	C1071.303589,811.388550 1071.811890,811.871033 1072.067139,812.114075 
	C1071.918457,812.879456 1071.424194,813.293640 1070.388428,813.783936 
	C1069.937500,813.968201 1070.000244,814.028870 1070.029297,814.061646 
z"/>
<path fill="#018A6F" opacity="1.000000" stroke="none" 
	d="
M675.990601,741.948975 
	C675.779297,741.744080 676.407837,741.652039 676.407837,741.652039 
	C676.407837,741.652039 676.716675,742.208313 676.668945,742.387695 
	C676.621277,742.567078 676.201904,742.153931 675.990601,741.948975 
z"/>
<path fill="#018A6F" opacity="1.000000" stroke="none" 
	d="
M995.694031,1543.642090 
	C995.513306,1543.457886 996.156982,1543.361206 996.156982,1543.361206 
	C996.156982,1543.361206 996.404846,1543.926270 996.320129,1544.060913 
	C996.235413,1544.195557 995.874756,1543.826294 995.694031,1543.642090 
z"/>
<path fill="#018A6F" opacity="1.000000" stroke="none" 
	d="
M336.006622,1747.993774 
	C336.012817,1747.987549 336.022217,1748.140381 336.008484,1748.073486 
	C335.994781,1748.006470 336.000427,1748.000000 336.006622,1747.993774 
z"/>
<path fill="#466F4B" opacity="1.000000" stroke="none" 
	d="
M926.802734,1306.843018 
	C937.035767,1310.281128 946.871094,1312.630981 955.740112,1316.960205 
	C965.864746,1321.902466 973.512085,1330.188354 975.949890,1341.638306 
	C978.693176,1354.523315 970.995789,1368.334839 956.866028,1374.450073 
	C947.829163,1378.361206 938.005188,1381.225098 928.259827,1382.567749 
	C907.514709,1385.426147 886.597717,1387.322510 865.627686,1384.287598 
	C864.044312,1384.058472 862.486938,1383.649658 860.145081,1383.164307 
	C856.552612,1325.139282 857.105286,1267.424683 860.202209,1208.817993 
	C862.978455,1208.019775 865.706909,1206.638794 868.484436,1206.531738 
	C889.773376,1205.711914 911.070618,1205.414673 932.078369,1209.826904 
	C936.603455,1210.777222 941.128113,1212.163574 945.353455,1214.027954 
	C959.999817,1220.490479 965.315613,1230.845337 961.985107,1246.228516 
	C960.386536,1253.612427 955.127869,1258.173218 948.850830,1261.725098 
	C936.026489,1268.981934 921.868896,1270.727173 907.524414,1271.644897 
	C904.869873,1271.814819 902.151978,1271.463379 899.554565,1271.898193 
	C897.741211,1272.201782 895.222778,1272.973511 894.495239,1274.328369 
	C889.528259,1283.578491 884.952271,1293.038452 879.921936,1303.086548 
	C896.331909,1304.348755 911.154968,1305.488892 926.802734,1306.843018 
z"/>
<path fill="#466F4B" opacity="1.000000" stroke="none" 
	d="
M2991.311768,1382.297852 
	C2990.007568,1367.277588 2988.657227,1353.020020 2988.441895,1338.745239 
	C2988.049561,1312.761597 2988.032227,1286.763184 2988.435547,1260.779785 
	C2988.702881,1243.539673 2989.974365,1226.315063 2990.819092,1208.600220 
	C2993.812988,1207.785156 2996.292480,1206.590576 2998.809570,1206.506470 
	C3020.449463,1205.781738 3042.131592,1205.172119 3063.438232,1209.978638 
	C3069.205566,1211.279785 3075.058838,1213.315186 3080.159912,1216.251465 
	C3097.353516,1226.147705 3098.550049,1247.480225 3082.739014,1259.386475 
	C3074.306396,1265.736572 3064.440186,1268.868652 3054.058838,1270.119019 
	C3047.140869,1270.952271 3040.149658,1271.586304 3033.193848,1271.560791 
	C3027.798828,1271.540894 3024.637207,1273.183105 3022.656006,1278.459351 
	C3019.646240,1286.475342 3015.847168,1294.194946 3011.727051,1303.527344 
	C3016.537354,1303.838257 3020.320312,1304.006226 3024.088623,1304.339966 
	C3036.984131,1305.481445 3050.042725,1305.768799 3062.722412,1308.101562 
	C3076.955811,1310.719971 3090.096680,1316.764404 3100.130127,1327.783447 
	C3111.174561,1339.912354 3110.535645,1355.738525 3098.346680,1366.899048 
	C3094.263672,1370.637695 3089.339600,1373.995728 3084.197998,1375.916626 
	C3076.154297,1378.921875 3067.718506,1381.458008 3059.234863,1382.591309 
	C3038.778076,1385.324097 3018.195557,1387.174805 2997.537842,1384.419556 
	C2995.591553,1384.159790 2993.696289,1383.517334 2991.311768,1382.297852 
z"/>
<path fill="#466E4B" opacity="1.000000" stroke="none" 
	d="
M3371.190918,1286.810913 
	C3377.803223,1299.773071 3385.948242,1311.187134 3390.468750,1326.112427 
	C3363.440674,1328.729736 3337.443115,1328.287354 3309.712891,1325.799072 
	C3321.519531,1299.256714 3336.621338,1275.830933 3350.780029,1249.474121 
	C3358.171875,1262.994629 3364.505371,1274.579224 3371.190918,1286.810913 
z"/>
<path fill="#466E4B" opacity="1.000000" stroke="none" 
	d="
M2208.002930,1327.264771 
	C2203.463867,1325.775024 2204.260742,1323.238281 2205.556885,1320.696045 
	C2208.120117,1315.667847 2210.744141,1310.669678 2213.393311,1305.686157 
	C2221.798096,1289.875610 2230.201660,1274.064331 2238.671387,1258.288818 
	C2239.910889,1255.979980 2241.508301,1253.863403 2243.816406,1250.307617 
	C2250.348877,1258.339111 2254.034180,1267.031372 2258.483643,1275.242554 
	C2262.907471,1283.407227 2267.762695,1291.350708 2271.902100,1299.653564 
	C2276.128174,1308.130859 2279.714600,1316.927246 2283.654053,1325.748047 
	C2282.231689,1326.484253 2281.391846,1327.296753 2280.549072,1327.300171 
	C2256.636475,1327.397705 2232.723877,1327.414062 2208.002930,1327.264771 
z"/>
<path fill="#466E4B" opacity="1.000000" stroke="none" 
	d="
M1518.323730,1246.021606 
	C1518.669312,1235.420776 1519.072021,1225.816284 1519.338257,1216.208008 
	C1519.490112,1210.727661 1522.627808,1208.611694 1527.618652,1208.435425 
	C1550.570801,1207.625000 1573.502686,1207.330688 1595.753174,1214.331787 
	C1604.649414,1217.130981 1613.155762,1220.538940 1619.169800,1228.521118 
	C1630.503906,1243.564331 1627.456665,1263.580688 1611.456543,1273.653198 
	C1606.175171,1276.977905 1600.261353,1279.654419 1594.283447,1281.452637 
	C1571.704468,1288.244141 1548.444092,1288.309326 1525.139893,1287.625854 
	C1519.858765,1287.471069 1518.329468,1284.609497 1518.351685,1279.926880 
	C1518.403931,1268.957031 1518.340454,1257.986572 1518.323730,1246.021606 
z"/>
<path fill="#466E4B" opacity="1.000000" stroke="none" 
	d="
M1942.694824,1287.664551 
	C1936.764404,1287.774048 1932.234497,1287.374634 1932.384766,1280.548218 
	C1932.859985,1258.958130 1933.337402,1237.367676 1933.642700,1215.774780 
	C1933.716675,1210.530884 1936.648804,1208.674683 1941.139404,1208.500488 
	C1964.107666,1207.609375 1987.054688,1207.346558 2009.380249,1214.081787 
	C2013.809448,1215.418091 2018.017578,1217.519775 2022.273438,1219.392090 
	C2046.263672,1229.945679 2046.253540,1263.015381 2025.081787,1273.900513 
	C2016.904053,1278.104858 2008.020996,1281.293213 1999.117432,1283.655518 
	C1980.949463,1288.475708 1962.247925,1288.084351 1942.694824,1287.664551 
z"/>
</svg>